<?xml version="1.0" encoding="UTF-8"?> <svg xmlns="http://www.w3.org/2000/svg" id="Layer_1" data-name="Layer 1" viewBox="0 0 1469 1469"> <defs> <style> .cls-1 { fill: #f1ebe2; } .cls-1, .cls-2 { fill-rule: evenodd; stroke-width: 0px; } .cls-2 { fill: #ecece7; } </style> </defs> <path class="cls-1" d="m801.59,245.22c28.79-5,58.34-10.14,72.2-37.1l3.27.88c-1.48,30.27,21.55,49.5,43.98,68.23,13.49,11.26,26.75,22.34,34.34,35.53,7.23,12.56,6.73,24.4,2.8,34.64,6.91-8.52,16.93-14.88,31.43-14.9,15.22-.03,31.47,5.91,47.96,11.95,27.45,10.04,55.63,20.35,81.13,3.94l1.99,1.99c-16.43,25.47-6.11,53.61,3.95,81.02,6.04,16.48,11.99,32.7,11.96,47.9-.02,14.48-6.39,24.49-14.93,31.39,10.26-3.93,22.12-4.43,34.7,2.79,13.2,7.58,24.3,20.83,35.58,34.3,18.75,22.4,38,45.4,68.31,43.92l.73,2.72c-27,13.84-32.14,43.36-37.15,72.1-3.01,17.29-5.98,34.29-13.61,47.44-7.27,12.52-17.79,18-28.65,19.72,10.85,1.72,21.38,7.21,28.66,19.74,7.65,13.16,10.62,30.16,13.65,47.45,5.03,28.75,10.2,58.27,37.2,72.13l-1.3,4.86c-30.32-1.5-49.55,21.48-68.29,43.87-11.26,13.46-22.35,26.7-35.54,34.27-12.57,7.21-24.43,6.7-34.69,2.77,8.54,6.91,14.91,16.92,14.95,31.4.04,15.21-5.9,31.42-11.93,47.89-10.04,27.4-20.34,55.54-3.88,81.02l-1.99,1.99c-25.52-16.43-53.69-6.14-81.13,3.88-16.5,6.02-32.73,11.95-47.96,11.91-14.51-.03-24.53-6.4-31.45-14.93,3.94,10.25,4.45,22.09-2.77,34.65-7.58,13.18-20.84,24.25-34.32,35.5-22.41,18.71-45.43,37.93-43.92,68.2l-2.72.72c-13.88-26.96-43.44-32.13-72.23-37.16-17.31-3.02-34.34-5.99-47.51-13.63-12.54-7.27-18.04-17.78-19.77-28.62-1.72,10.84-7.21,21.35-19.74,28.61-13.17,7.62-30.2,10.58-47.5,13.6-28.79,5-58.34,10.14-72.2,37.1l-3.27-.88c1.48-30.27-21.55-49.5-43.98-68.23-13.48-11.26-26.75-22.34-34.34-35.53-7.23-12.56-6.73-24.4-2.8-34.64-6.91,8.53-16.93,14.88-31.43,14.9-15.23.03-31.46-5.91-47.97-11.95-27.44-10.04-55.63-20.36-81.13-3.94l-1.99-1.99c16.44-25.47,6.11-53.61-3.94-81.02-6.05-16.48-11.99-32.7-11.97-47.91.03-14.48,6.39-24.48,14.93-31.39-10.26,3.93-22.12,4.43-34.7-2.79-13.21-7.58-24.3-20.83-35.57-34.3-18.75-22.4-38.01-45.4-68.32-43.92l-.73-2.72c26.99-13.84,32.14-43.36,37.15-72.1,3.01-17.29,5.98-34.29,13.61-47.44,7.27-12.52,17.79-18,28.64-19.72-10.85-1.72-21.38-7.21-28.66-19.74-7.65-13.16-10.62-30.17-13.65-47.45-5.03-28.75-10.2-58.27-37.2-72.13l1.3-4.86c30.31,1.5,49.55-21.48,68.28-43.87,11.26-13.46,22.35-26.7,35.55-34.27,12.57-7.21,24.43-6.7,34.69-2.77-8.54-6.91-14.91-16.92-14.95-31.4-.04-15.21,5.9-31.42,11.93-47.89,10.03-27.4,20.34-55.54,3.88-81.02l1.99-1.99c25.51,16.44,53.69,6.15,81.13-3.87,16.5-6.03,32.73-11.95,47.96-11.92,14.5.04,24.52,6.4,31.44,14.93-3.94-10.25-4.45-22.1,2.77-34.65,7.58-13.18,20.84-24.25,34.32-35.5,22.41-18.71,45.43-37.92,43.92-68.2l2.72-.73c13.88,26.97,43.44,32.13,72.23,37.16,17.31,3.02,34.34,6,47.51,13.63,12.54,7.27,18.04,17.78,19.77,28.62,1.72-10.84,7.21-21.34,19.74-28.6,13.17-7.63,30.2-10.59,47.5-13.6Zm-180.95,914.2c234.63,61.48,475.05-77.3,538.62-311.1,61.85-234.26-76.98-474.67-310.91-538.73-234.63-61.48-475.05,77.31-538.62,311.1-61.84,234.26,76.98,474.67,310.91,538.73Z"></path> <path class="cls-2" d="m992.6,120.75c39.23,3.53,79.51,7.15,106.96-23.12l3.95,2.28c-12.49,38.91,10.79,71.98,33.46,104.19,13.63,19.37,27.04,38.43,32.32,58.25,5.03,18.87.25,34.12-8.45,46.09,11.98-8.69,27.24-13.47,46.13-8.44,19.83,5.28,38.91,18.68,58.29,32.3,32.24,22.65,65.34,45.92,104.27,33.43l1.9,3.29c-30.29,27.43-26.67,67.68-23.14,106.88,2.12,23.57,4.21,46.76-1.13,66.56-5.08,18.85-16.87,29.66-30.4,35.67,14.74-1.54,30.36,1.95,44.22,15.74,14.55,14.48,24.37,35.6,34.36,57.08,16.6,35.71,33.66,72.38,73.65,81.03v3.79c-39.98,8.6-56.98,45.25-73.54,80.93-9.95,21.46-19.75,42.57-34.28,57.04-13.84,13.77-29.45,17.24-44.19,15.68,13.54,6.03,25.33,16.85,30.43,35.71,5.37,19.8,3.31,42.99,1.22,66.56-3.48,39.2-7.05,79.44,23.28,106.92l-3.39,5.87c-38.95-12.53-72.02,10.69-104.23,33.3-19.36,13.59-38.42,26.97-58.25,32.22-18.88,5-34.15.2-46.14-8.5,8.71,11.98,13.51,27.23,8.51,46.11-5.26,19.81-18.65,38.85-32.25,58.21-22.62,32.18-45.87,65.22-33.32,104.15l-3.28,1.89c-27.49-30.3-67.77-26.73-107-23.26-23.59,2.09-46.79,4.14-66.61-1.22-18.87-5.11-29.7-16.9-35.74-30.42,1.56,14.72-1.91,30.33-15.69,44.15-14.47,14.52-35.6,24.31-57.07,34.26-35.71,16.54-72.39,33.53-80.99,73.48h-3.8c-8.66-39.96-45.36-57-81.09-73.59-21.49-9.97-42.63-19.8-57.12-34.33-13.8-13.84-17.29-29.45-15.75-44.16-6.02,13.51-16.83,25.28-35.69,30.36-19.81,5.33-43.02,3.25-66.61,1.13-39.23-3.53-79.52-7.15-106.97,23.12l-3.95-2.28c12.49-38.91-10.79-71.98-33.46-104.19-13.63-19.37-27.04-38.43-32.33-58.25-5.03-18.87-.25-34.12,8.45-46.09-11.98,8.69-27.24,13.47-46.13,8.44-19.84-5.28-38.91-18.68-58.29-32.3-32.24-22.66-65.34-45.92-104.27-33.44l-1.9-3.28c30.29-27.43,26.67-67.68,23.14-106.88-2.12-23.57-4.21-46.77,1.13-66.56,5.09-18.86,16.87-29.66,30.39-35.68-14.73,1.54-30.35-1.95-44.21-15.74-14.55-14.48-24.37-35.6-34.36-57.07C57.04,782.34,39.99,745.67,0,737.02v-3.79c39.98-8.6,56.98-45.25,73.54-80.93,9.96-21.46,19.75-42.57,34.28-57.03,13.84-13.77,29.45-17.24,44.18-15.68-13.53-6.03-25.32-16.85-30.43-35.71-5.37-19.8-3.31-42.99-1.22-66.56,3.48-39.2,7.05-79.45-23.28-106.91l3.39-5.88c38.95,12.53,72.02-10.69,104.23-33.3,19.37-13.6,38.42-26.97,58.25-32.22,18.88-5,34.15-.2,46.14,8.5-8.71-11.98-13.51-27.24-8.51-46.1,5.26-19.82,18.64-38.85,32.25-58.21,22.63-32.18,45.86-65.23,33.32-104.15l3.28-1.89c27.49,30.31,67.77,26.74,107,23.26,23.59-2.09,46.79-4.15,66.61,1.22,18.87,5.11,29.7,16.89,35.74,30.42-1.56-14.72,1.91-30.33,15.69-44.16,14.47-14.52,35.6-24.31,57.07-34.26,35.71-16.54,72.39-33.53,80.99-73.48h3.8c8.66,39.96,45.36,57,81.09,73.59,21.49,9.98,42.64,19.79,57.12,34.33,13.8,13.84,17.29,29.45,15.76,44.17,6.02-13.51,16.84-25.28,35.69-30.36,19.81-5.34,43.02-3.25,66.61-1.13ZM437.96,1248.12c284.09,161.93,645.61,65.09,809.97-217.19,162.27-283.48,65.38-644.99-216.9-810.04C746.95,58.95,385.43,155.79,221.07,438.07c-162.28,283.48-65.39,644.99,216.9,810.05Z"></path> </svg> 