<?xml version="1.0" encoding="UTF-8"?> <svg xmlns="http://www.w3.org/2000/svg" width="58" height="58" viewBox="0 0 58 58" fill="none"> <path d="M41.083 4.83301H16.9163C10.2429 4.83301 4.83301 10.2429 4.83301 16.9163V41.083C4.83301 47.7565 10.2429 53.1663 16.9163 53.1663H41.083C47.7565 53.1663 53.1663 47.7565 53.1663 41.083V16.9163C53.1663 10.2429 47.7565 4.83301 41.083 4.83301Z" stroke="#413B8A" stroke-width="3.41176" stroke-linecap="round" stroke-linejoin="round"></path> <path d="M38.6663 27.4782C38.9645 29.4895 38.621 31.5436 37.6845 33.3483C36.7481 35.1531 35.2664 36.6166 33.4502 37.5308C31.634 38.4449 29.5759 38.7631 27.5684 38.4401C25.561 38.117 23.7065 37.1693 22.2688 35.7315C20.8311 34.2938 19.8833 32.4393 19.5603 30.4319C19.2373 28.4245 19.5554 26.3663 20.4696 24.5501C21.3837 22.734 22.8472 21.2523 24.652 20.3158C26.4568 19.3794 28.5109 19.0358 30.5221 19.3341C32.5737 19.6383 34.473 20.5943 35.9395 22.0608C37.4061 23.5273 38.3621 25.4267 38.6663 27.4782Z" stroke="#413B8A" stroke-width="3.41176" stroke-linecap="round" stroke-linejoin="round"></path> <path d="M42.292 15.708H42.3153" stroke="#413B8A" stroke-width="3.41176" stroke-linecap="round" stroke-linejoin="round"></path> </svg> 