<?xml version="1.0" encoding="UTF-8"?> <!-- Generator: Adobe Illustrator 28.0.0, SVG Export Plug-In . SVG Version: 6.00 Build 0) --> <svg xmlns="http://www.w3.org/2000/svg" xmlns:xlink="http://www.w3.org/1999/xlink" id="Layer_1" x="0px" y="0px" viewBox="0 0 1053.2 1053" style="enable-background:new 0 0 1053.2 1053;" xml:space="preserve"> <style type="text/css"> .st0{fill-rule:evenodd;clip-rule:evenodd;fill:#F1EBE2;} </style> <path class="st0" d="M593.7,37.2c28.8-5,58.3-10.1,72.2-37.1l3.3,0.9c-1.5,30.3,21.5,49.5,44,68.2c13.5,11.3,26.8,22.3,34.3,35.5 c7.2,12.6,6.7,24.4,2.8,34.6c6.9-8.5,16.9-14.9,31.4-14.9c15.2,0,31.5,5.9,48,12c27.4,10,55.6,20.4,81.1,3.9l2,2 c-16.4,25.5-6.1,53.6,3.9,81c6,16.5,12,32.7,12,47.9c0,14.5-6.4,24.5-14.9,31.4c10.3-3.9,22.1-4.4,34.7,2.8 c13.2,7.6,24.3,20.8,35.6,34.3c18.8,22.4,38,45.4,68.3,43.9l0.7,2.7c-27,13.8-32.1,43.4-37.1,72.1c-3,17.3-6,34.3-13.6,47.4 c-7.3,12.5-17.8,18-28.7,19.7c10.8,1.7,21.4,7.2,28.7,19.7c7.7,13.2,10.6,30.2,13.7,47.5c5,28.8,10.2,58.3,37.2,72.1l-1.3,4.9 c-30.3-1.5-49.5,21.5-68.3,43.9c-11.3,13.5-22.3,26.7-35.5,34.3c-12.6,7.2-24.4,6.7-34.7,2.8c8.5,6.9,14.9,16.9,14.9,31.4 c0,15.2-5.9,31.4-11.9,47.9c-10,27.4-20.3,55.5-3.9,81l-2,2c-25.5-16.4-53.7-6.1-81.1,3.9c-16.5,6-32.7,11.9-48,11.9 c-14.5,0-24.5-6.4-31.5-14.9c3.9,10.2,4.5,22.1-2.8,34.7c-7.6,13.2-20.8,24.2-34.3,35.5c-22.4,18.7-45.4,37.9-43.9,68.2l-2.7,0.7 c-13.9-27-43.4-32.1-72.2-37.2c-17.3-3-34.3-6-47.5-13.6c-12.5-7.3-18-17.8-19.8-28.6c-1.7,10.8-7.2,21.3-19.7,28.6 c-13.2,7.6-30.2,10.6-47.5,13.6c-28.8,5-58.3,10.1-72.2,37.1l-3.3-0.9c1.5-30.3-21.5-49.5-44-68.2c-13.5-11.3-26.8-22.3-34.3-35.5 c-7.2-12.6-6.7-24.4-2.8-34.6c-6.9,8.5-16.9,14.9-31.4,14.9c-15.2,0-31.5-5.9-48-11.9c-27.4-10-55.6-20.4-81.1-3.9l-2-2 c16.4-25.5,6.1-53.6-3.9-81c-6-16.5-12-32.7-12-47.9c0-14.5,6.4-24.5,14.9-31.4c-10.3,3.9-22.1,4.4-34.7-2.8 c-13.2-7.6-24.3-20.8-35.6-34.3c-18.8-22.4-38-45.4-68.3-43.9l-0.7-2.7c27-13.8,32.1-43.4,37.2-72.1c3-17.3,6-34.3,13.6-47.4 c7.3-12.5,17.8-18,28.6-19.7c-10.9-1.7-21.4-7.2-28.7-19.7c-7.6-13.2-10.6-30.2-13.6-47.5C32.2,431.4,27,401.9,0,388l1.3-4.9 c30.3,1.5,49.5-21.5,68.3-43.9c11.3-13.5,22.4-26.7,35.5-34.3c12.6-7.2,24.4-6.7,34.7-2.8c-8.5-6.9-14.9-16.9-15-31.4 c0-15.2,5.9-31.4,11.9-47.9c10-27.4,20.3-55.5,3.9-81l2-2c25.5,16.4,53.7,6.1,81.1-3.9c16.5-6,32.7-12,48-11.9 c14.5,0,24.5,6.4,31.4,14.9c-3.9-10.2-4.5-22.1,2.8-34.6c7.6-13.2,20.8-24.2,34.3-35.5c22.4-18.7,45.4-37.9,43.9-68.2l2.7-0.7 c13.9,27,43.4,32.1,72.2,37.2c17.3,3,34.3,6,47.5,13.6c12.5,7.3,18,17.8,19.8,28.6c1.7-10.8,7.2-21.3,19.7-28.6 C559.3,43.2,576.4,40.2,593.7,37.2L593.7,37.2L593.7,37.2z M412.8,951.4c234.6,61.5,475-77.3,538.6-311.1 c61.8-234.3-77-474.7-310.9-538.7c-234.6-61.5-475,77.3-538.6,311.1C40,647,178.8,887.4,412.8,951.4z"></path> </svg> 