<?xml version="1.0" encoding="UTF-8"?> <svg xmlns="http://www.w3.org/2000/svg" id="Layer_1" data-name="Layer 1" viewBox="0 0 51 51"><defs><style> .cls-1, .cls-2, .cls-3 { fill: none; stroke: #262f68; } .cls-1, .cls-3 { stroke-miterlimit: 10; } .cls-2 { stroke-linejoin: round; } .cls-2, .cls-3 { stroke-linecap: round; } </style></defs><circle class="cls-1" cx="25.5" cy="25.5" r="25"></circle><g><g><g><g><line class="cls-3" x1="11.97" y1="10.5" x2="11.97" y2="18.28"></line><line class="cls-3" x1="14.08" y1="10.5" x2="14.08" y2="18.28"></line></g><path class="cls-2" d="m14.45,22.24h-.37l.66,16.43c.04,1-.76,1.83-1.76,1.83s-1.81-.83-1.76-1.83l.66-16.43h-.37c-1.22,0-2.2-.98-2.2-2.2l.73-9.54h5.87l.73,9.54c0,1.22-.99,2.2-2.2,2.2Z"></path></g><path class="cls-2" d="m40.99,10.5c-.24,0-.46.12-.59.32-.73,1.16-1.31,2.5-1.72,3.98-.43,1.55-.67,3.24-.67,5.01,0,2.97.66,5.71,1.78,7.92l-1.49,10.76c-.15,1.06.68,2,1.74,2h.91c.41,0,.73-.33.73-.73V11.19c0-.38-.31-.69-.69-.69h0Z"></path></g><g><g><g><path class="cls-1" d="m36.15,29.63c-.28,1.9-1.35,3.72-3.1,4.94-1.71,1.2-3.73,1.58-5.58,1.24-.05-.01-.09-.01-.14-.02.23-1.55.98-3.06,2.21-4.21.27-.27.58-.52.89-.75,1.75-1.22,3.84-1.61,5.71-1.21Z"></path><path class="cls-1" d="m27.34,35.79s-.08.01-.11.02c-1.84.36-3.88-.03-5.6-1.23-1.75-1.23-2.82-3.06-3.1-4.96,1.88-.38,3.96,0,5.71,1.22.33.23.62.48.91.76,1.22,1.15,1.97,2.65,2.2,4.19Z"></path></g><g><path class="cls-1" d="m34.96,21.69c-.24,1.64-1.16,3.22-2.68,4.28-1.48,1.04-3.23,1.37-4.82,1.08-.04,0-.08,0-.12-.02.2-1.34.85-2.64,1.91-3.64.24-.23.5-.45.77-.65,1.52-1.06,3.32-1.39,4.94-1.05Z"></path><path class="cls-1" d="m27.34,27.03s-.07,0-.1.02c-1.6.31-3.36-.03-4.84-1.07-1.52-1.07-2.44-2.64-2.68-4.29,1.62-.33,3.43,0,4.94,1.06.28.2.54.41.78.66,1.06,1,1.7,2.29,1.9,3.62Z"></path></g><path class="cls-1" d="m27.33,19.8c-1.21-1.14-1.97-2.8-1.97-4.65,0-1.81.73-3.43,1.89-4.57.03-.03.05-.06.08-.09.99.93,1.68,2.21,1.89,3.65.06.33.08.67.09,1,0,1.85-.76,3.51-1.98,4.65Z"></path></g><line class="cls-2" x1="27.33" y1="19.79" x2="27.33" y2="40.5"></line></g></g></svg> 