<?xml version="1.0" encoding="UTF-8"?> <svg xmlns="http://www.w3.org/2000/svg" width="112" height="96" viewBox="0 0 112 96" fill="none"> <path d="M19.4973 29.0839C26.7742 24.3136 39.3798 15.8175 47.5084 10.2056C55.6387 4.59212 63.296 0 64.5265 0C67.9913 0 103.779 32.5407 108.916 40.3637L112 45.0598L103.787 52.2887C99.2702 56.2637 84.5528 67.8438 71.0839 78.023C53.8658 91.0321 45.5172 96.3666 42.9687 95.9805C37.4283 95.1456 32.1972 91.2218 27.272 84.2124C24.8161 80.7143 20.4516 76.7145 17.5756 75.3235C11.0975 72.19 3.24517 60.935 0.870258 51.3762C-1.25327 42.8305 -0.990471 42.5154 19.4973 29.0839Z" fill="#150E70"></path> </svg> 