<?xml version="1.0" encoding="UTF-8"?> <svg xmlns="http://www.w3.org/2000/svg" width="565" height="147" viewBox="0 0 565 147" fill="none"> <rect width="565" height="147" fill="white"></rect> <path fill-rule="evenodd" clip-rule="evenodd" d="M305.803 66.3378C305.264 66.4289 304.61 66.624 304.35 66.7713C303.426 67.2942 302.561 69.0782 302.561 70.462C302.561 71.0518 302.539 71.3813 302.471 71.7198C302.403 72.0584 302.149 72.4344 301.904 72.3824C301.77 72.3542 299.605 72.2087 297.093 72.0591C289.256 71.5925 284.947 71.6777 284.019 72.3177C283.138 72.9258 283.346 73.519 285.103 75.4017C285.339 75.655 285.532 75.9063 285.532 75.9604C285.532 76.0146 285.984 76.2755 286.537 76.5401C287.477 76.9906 287.627 77.0215 288.856 77.0207C291.155 77.0191 301.623 76.2964 301.92 76.1188C301.998 76.0719 302.018 76.2344 301.97 76.5229C301.926 76.7884 301.949 77.025 302.022 77.0486C302.157 77.0921 301.947 90.3457 301.806 90.7233C301.767 90.8264 301.64 91.8448 301.524 92.9864C301.33 94.8968 301.331 95.1161 301.542 95.7374C301.888 96.7557 302.812 98.171 303.473 98.6961C304.438 99.4628 304.846 99.3077 305.517 97.9189C306.272 96.3546 306.278 96.3334 306.729 93.2893C307.155 90.4207 307.16 90.3146 307.08 86.6835C307.035 84.6538 306.926 81.1211 306.839 78.8331C306.673 74.4902 306.601 70.0961 306.692 69.8085C306.721 69.7163 306.955 69.6407 307.211 69.6407C307.8 69.6407 307.84 69.7755 307.869 71.8786C307.895 73.6902 308.156 74.4303 308.855 74.6709C309.204 74.7908 309.281 74.754 309.706 74.2683C309.964 73.9743 310.424 73.2483 310.729 72.6552C311.228 71.6836 311.284 71.4763 311.284 70.5662C311.284 69.2953 311.059 68.0834 310.725 67.5566C310.564 67.3017 310.116 66.9784 309.526 66.6906C308.435 66.1592 307.427 66.0635 305.803 66.3378Z" fill="#150E70"></path> <path d="M289.046 84.0155C289.746 83.557 290.96 82.7404 291.743 82.2011C292.526 81.6616 293.263 81.2202 293.382 81.2202C293.715 81.2202 297.162 84.3477 297.656 85.0996L297.953 85.5509L297.162 86.2457C296.728 86.6277 295.31 87.7407 294.013 88.719C292.355 89.9693 291.551 90.482 291.306 90.4449C290.772 90.3646 290.269 89.9875 289.794 89.3138C289.558 88.9776 289.137 88.5932 288.86 88.4595C288.237 88.1584 287.48 87.0767 287.252 86.158C287.047 85.3366 287.073 85.3064 289.046 84.0155Z" fill="#150E70"></path> <path fill-rule="evenodd" clip-rule="evenodd" d="M238.282 55.5477C237.106 55.7945 236.719 56.0427 236.298 56.8204C236.013 57.3464 235.984 57.5424 236.05 58.4899C236.147 59.8694 236.701 61.9213 237.394 63.4585C238.194 65.2351 240.16 68.6313 241.056 69.7861C241.485 70.3385 241.811 70.8156 241.779 70.8461C241.748 70.8765 238.207 71.0529 233.91 71.2376C204.443 72.5058 198.968 72.8073 197.163 73.2613C195.854 73.5906 195.719 73.9535 196.416 75.2711C196.941 76.2645 197.465 76.6344 198.514 76.7539C199.417 76.8568 199.375 76.7556 199.175 78.3543C199.101 78.9429 198.883 81.0548 198.691 83.0476C198.498 85.0404 198.208 87.9118 198.045 89.4286L197.748 92.1863L198.042 92.7835C198.699 94.1205 199.298 95.0078 199.74 95.3019C199.998 95.473 200.258 95.6995 200.319 95.8052C200.608 96.3048 201.601 95.7138 201.923 94.8513C202.027 94.5728 202.289 94.0734 202.506 93.7414C202.724 93.4094 203.002 92.8009 203.126 92.3892C203.841 90.0068 205.863 87.2117 207.447 86.4178L207.893 86.1944V86.5855C207.893 87.2176 207.503 89.0274 207.061 90.4493C206.545 92.1089 206.546 92.4189 207.075 93.3953C207.31 93.8301 207.617 94.3972 207.756 94.6555C208.066 95.2316 209.158 96.1317 209.546 96.1317C209.986 96.1317 210.344 95.692 210.999 94.3475C212.258 91.7635 212.676 89.8641 212.657 86.8051C212.646 85.0977 212.599 84.6719 212.345 83.9997C211.93 82.8979 211.469 82.3698 210.518 81.9045C209.578 81.4447 208.78 81.3964 207.053 81.6948C205.667 81.9345 205.053 82.2594 204.101 83.2554C203.666 83.7115 203.28 84.0566 203.245 84.0226C203.21 83.9883 203.246 82.7888 203.325 81.3569C203.403 79.9249 203.482 78.3657 203.5 77.8918L203.532 77.0304L209.139 76.9992C216.675 76.9573 228.107 76.8216 237.015 76.6684L244.332 76.5425L244.597 76.8427C245.896 78.3191 247.481 80.6598 248.304 82.3171C249.529 84.7825 250.582 88.186 250.508 89.4397L250.466 90.16L248.756 88.5496C246.756 86.6666 246.227 86.0398 244.291 83.2617C243.499 82.1246 242.649 80.9844 242.402 80.7277C241.994 80.3033 241.901 80.2678 241.379 80.3357C240.363 80.4677 240.32 80.6144 240.834 82.1864C241.467 84.1221 244.003 88.7536 245.53 90.7622C247.165 92.9127 249.482 94.7576 250.99 95.1098C252.249 95.4036 253.448 94.2573 254.273 91.9716C254.712 90.7578 254.8 88.6838 254.49 86.8873C254.031 84.2281 252.454 80.4646 250.553 77.4942L249.856 76.405L252.03 76.4078C253.226 76.4094 258.882 76.3388 264.6 76.2509C272.454 76.1301 275.191 76.1288 275.791 76.2455C276.997 76.4804 277.385 76.2726 278.044 75.039C278.332 74.4987 278.552 73.9409 278.532 73.7993C278.513 73.6579 278.615 73.4163 278.76 73.2625C279.053 72.9505 279.186 72.4368 279.286 71.223C279.35 70.4535 279.331 70.3846 278.979 70.1159C278.772 69.9584 278.475 69.8294 278.319 69.8294C278.163 69.8294 277.894 69.7011 277.722 69.5445C277.432 69.2799 277.346 69.2698 276.536 69.404C275.076 69.6457 274.175 69.6978 269.149 69.8303C266.488 69.9005 260.138 70.1393 255.039 70.3607C249.939 70.5822 245.72 70.718 245.663 70.6628C245.334 70.3434 243.569 67.3013 242.612 65.401C241.47 63.1349 240.267 60.4129 240.366 60.3171C240.471 60.215 241.66 61.2492 242.461 62.1395C243.547 63.3462 244.607 64.3836 245.028 64.6511C245.57 64.995 246.021 64.7508 246.444 63.8842C246.638 63.4864 246.797 63.0809 246.797 62.983C246.797 62.8853 246.893 62.702 247.011 62.5758C247.14 62.4379 247.258 61.967 247.308 61.3986L247.389 60.451L245.882 58.9906C244.26 57.4201 242.962 56.4734 241.544 55.8275C240.476 55.3412 239.617 55.2675 238.282 55.5477ZM262.685 78.2193C261.663 78.4661 261.052 78.7732 259.986 79.578C258.913 80.3879 258.136 81.3709 257.402 82.8463C256.843 83.9691 256.834 84.0101 256.834 85.4631C256.834 87.2725 257.041 87.9814 258.04 89.6084C259.733 92.3649 262.583 94.1187 265.369 94.1187C266.283 94.1187 268.598 93.6572 269.7 93.255C272.26 92.3211 275.224 89.6915 275.987 87.6774C276.085 87.419 276.261 87.0265 276.379 86.8051C276.497 86.5837 276.626 86.0564 276.667 85.6333C276.748 84.7809 276.589 84.4567 276.09 84.4567C275.924 84.4567 275.718 84.389 275.633 84.3064C275.518 84.1953 275.134 84.1953 274.163 84.3062C273.44 84.3889 272.752 84.4922 272.635 84.536C272.518 84.5796 272.252 84.8967 272.045 85.2405C271.838 85.5843 271.297 86.2428 270.841 86.7038C269.645 87.9156 267.133 89.2877 266.111 89.2877C265.444 89.2877 263.68 88.9417 263.053 88.6877L262.514 88.4695L263.274 88.0615C263.692 87.837 265.124 87.106 266.457 86.4366C267.789 85.7674 268.996 85.1235 269.138 85.0059C269.918 84.3623 270.606 82.0233 270.159 81.5359C270.042 81.4079 269.843 81.0623 269.717 80.7682C269.592 80.4739 269.352 80.0893 269.184 79.9134C268.429 79.1212 266.773 78.4112 265.349 78.2691C264.778 78.2122 264.124 78.1345 263.895 78.0965C263.667 78.0585 263.122 78.1138 262.685 78.2193ZM235.098 79.31C234.946 79.3406 234.478 79.4486 234.06 79.55C233.641 79.6513 233.128 79.7711 232.92 79.8161C232.305 79.9491 232.143 80.4399 232.224 81.9206C232.306 83.3995 232.095 85.3935 231.699 86.8966C231.348 88.2318 230.725 89.6393 230.592 89.3991C230.538 89.301 230.362 88.6575 230.2 87.9691C229.838 86.4277 229.818 84.6891 230.141 82.7293C230.474 80.7038 230.464 80.1414 230.094 79.961C229.931 79.8816 229.7 79.738 229.581 79.6422C229.351 79.4578 229.013 79.4933 227.743 79.835C227.091 80.0105 227.011 80.0771 226.753 80.6645C226.049 82.2641 225.676 84.2012 225.533 87.0064C225.404 89.5386 225.761 91.1177 226.962 93.3136C227.871 94.978 228.178 95.3739 229.045 96.0024C230.02 96.7088 230.447 96.8551 231.212 96.744C232.545 96.5501 233.71 95.3182 234.914 92.8268C236.41 89.7335 237.134 86.3638 237.152 82.4232C237.162 80.0953 237.087 79.7598 236.556 79.7598C236.425 79.7598 236.205 79.6391 236.067 79.4915C235.822 79.2286 235.656 79.1976 235.098 79.31ZM264.658 80.0286C265.239 80.3159 266.318 81.3232 266.318 81.5781C266.318 81.7728 265.058 82.9134 263.542 84.0906C262.899 84.5905 261.982 85.3029 261.505 85.6738C260.482 86.4697 260.434 86.4338 260.434 84.8593C260.434 83.5565 260.7 83.1098 262.6 81.2164C263.389 80.4307 264.052 79.7816 264.074 79.7738C264.096 79.7661 264.359 79.8808 264.658 80.0286Z" fill="#150E70"></path> <path d="M216.271 84.3307C216.851 83.9539 217.857 83.2827 218.506 82.8394C219.155 82.396 219.766 82.0332 219.864 82.0332C220.141 82.0332 222.997 84.6038 223.407 85.2218L223.653 85.5928L222.997 86.1638C222.637 86.4778 221.462 87.3926 220.388 88.1967C219.013 89.2244 218.347 89.6458 218.144 89.6153C217.702 89.5493 217.284 89.2394 216.891 88.6857C216.695 88.4093 216.347 88.0934 216.117 87.9835C215.6 87.7359 214.974 86.8468 214.784 86.0917C214.615 85.4166 214.636 85.3918 216.271 84.3307Z" fill="#150E70"></path> <path d="M297.449 41.6467C297.449 41.5134 297.554 41.3029 297.682 41.1789C297.972 40.8971 299.1 40.958 299.792 41.2929C300.05 41.4175 300.325 41.5193 300.403 41.5193C300.908 41.5193 302.433 42.4757 302.433 42.7924C302.433 43.0259 307.021 47.254 309.062 48.9022C310.261 49.87 317.285 54.531 319.087 55.5548C319.544 55.8147 320.361 56.3499 320.902 56.7442C322.306 57.7674 325.36 59.553 329.592 61.8248C330.1 62.0972 331.033 62.6928 331.667 63.1481C332.301 63.6034 333.303 64.2076 333.894 64.4905C335.323 65.1744 335.334 65.5636 333.944 66.2693C332.747 66.8772 331.644 66.6884 328.553 65.3465C327.475 64.8781 326.327 64.4259 326.003 64.3412C325.257 64.1466 322.394 62.904 321.005 62.1725C320.423 61.866 319.48 61.3716 318.909 61.0738C318.337 60.7761 317.434 60.2488 316.901 59.9022C316.368 59.5554 315.558 59.0714 315.101 58.8263C314.078 58.2774 310.162 55.8048 308.94 54.9358C308.445 54.5838 307.652 54.076 307.178 53.8073C305.691 52.9655 304.25 51.7658 301.582 49.1501C299.327 46.9391 298.612 46.2979 298.891 46.735C299.002 46.9086 298.168 48.345 297.556 49.0343C295.611 51.2246 290.935 54.7113 286.076 57.5936C280.843 60.698 271.651 64.5121 267.069 65.4801C265.599 65.7908 262.247 65.6998 261.671 65.3337C261.257 65.0707 260.898 64.4871 260.898 64.0761C260.898 63.5077 262.134 62.7949 264.637 61.9197C266.621 61.2255 268.273 60.5565 269.628 59.8988C270.203 59.6197 271.355 59.11 272.189 58.7665C274.657 57.7496 279.611 55.1224 282.287 53.4113C288.023 49.7434 293.164 45.8838 294.385 44.3282C294.86 43.7232 295.034 43.6493 296.791 43.3076C297.142 43.2392 297.164 43.1966 297.089 42.739C297.029 42.3774 297.067 42.1968 297.228 42.0667C297.35 41.969 297.449 41.7799 297.449 41.6467Z" fill="#150E70"></path> <path d="M348.786 82.8265C350.613 81.061 352.652 80.1814 356.086 79.6787C357.17 79.52 358.841 79.5955 359.857 79.8491C360.218 79.9391 361.14 80.307 361.906 80.6666C363.03 81.1938 363.575 81.5867 364.721 82.6942C365.98 83.9101 366.247 84.2753 367.047 85.8722C369.494 90.757 369.78 97.5301 367.78 103.21C366.116 107.934 363.287 111.811 360.564 113.102C359.432 113.638 358.429 113.844 356.39 113.959C355.099 114.033 355.035 114.019 354.465 113.566C353.892 113.109 352.725 111.11 352.725 110.586C352.725 109.965 353.189 109.675 354.645 109.388C355.835 109.152 356.271 108.977 357.152 108.379C361.514 105.416 364.24 99.8468 364.259 93.8582C364.273 89.2211 362.876 86.3558 359.939 84.9988C358.975 84.5536 358.722 84.5065 357.296 84.5065C355.753 84.5065 355.687 84.5221 354.263 85.2173C353.14 85.765 352.503 86.2192 351.481 87.1986C349.99 88.6278 347.807 91.3724 347.805 91.8203C347.805 91.9822 347.694 92.319 347.559 92.5687C347.424 92.8185 347.314 93.1082 347.314 93.2126C347.314 93.6629 346.46 95.0687 346.087 95.2332C345.733 95.3894 345.599 95.3418 344.954 94.8308C344.129 94.1776 343.463 93.092 342.608 91.0052C342.286 90.2206 341.87 89.3647 341.683 89.1031C340.917 88.0331 339.486 86.7508 338.543 86.2889C336.733 85.403 334.656 85.569 334.069 86.6463C333.556 87.5861 334.199 90.8674 335.533 94.1228C336.256 95.8872 336.359 96.2751 336.291 96.9657C336.247 97.4057 336.09 97.8826 335.941 98.0264C335.69 98.2691 335.629 98.2659 335.082 97.9809C334.261 97.5539 333.334 96.4888 332.288 94.7733C331.12 92.8576 330.655 91.818 330.145 89.9819C329.205 86.5931 329.768 83.3222 331.56 81.759C332.595 80.8567 335.197 80.2257 337.418 80.3384C338.669 80.4018 338.938 80.4794 340.482 81.2215C342.416 82.1505 343.996 83.4491 345.373 85.2393L346.218 86.3369L346.873 85.1901C347.279 84.4783 348.005 83.5818 348.786 82.8265Z" fill="#150E70"></path> <path d="M317.35 84.0159C318.051 83.5575 319.265 82.7409 320.048 82.2016C320.831 81.662 321.568 81.2207 321.686 81.2207C322.02 81.2207 325.466 84.3482 325.961 85.1L326.258 85.5514L325.467 86.2462C325.032 86.6282 323.615 87.7411 322.318 88.7195C320.66 89.9698 319.856 90.4825 319.61 90.4454C319.077 90.3651 318.573 89.988 318.099 89.3143C317.862 88.9781 317.442 88.5937 317.165 88.46C316.541 88.1589 315.785 87.0771 315.556 86.1584C315.352 85.3371 315.377 85.3068 317.35 84.0159Z" fill="#150E70"></path> <path fill-rule="evenodd" clip-rule="evenodd" d="M363.167 70.7838C355.339 70.7616 347.037 70.8641 332.263 71.1651C321.562 71.3833 317.042 71.6798 316.333 72.2104C315.859 72.5657 316.358 74.0624 317.135 74.6167C317.389 74.7976 317.859 75.0134 318.179 75.0963C318.943 75.2941 332.411 75.7932 340.141 75.9101C348.454 76.0358 360.156 76.1713 362.574 76.1698C363.679 76.1691 365.081 76.1678 365.691 76.1669C367.264 76.1649 367.621 76.0137 368.074 75.1566C368.28 74.7682 368.451 74.3696 368.454 74.2707C368.458 74.172 368.563 73.9582 368.689 73.7959C368.821 73.6246 368.964 73.0835 369.028 72.5073L369.138 71.5141L368.743 71.3422C368.526 71.2476 368.155 71.0818 367.918 70.9736C367.682 70.8655 367.311 70.7808 367.094 70.7855C366.876 70.79 365.109 70.7893 363.167 70.7838Z" fill="#150E70"></path> </svg> 