<?xml version="1.0" encoding="UTF-8"?> <svg xmlns="http://www.w3.org/2000/svg" width="274" height="277" viewBox="0 0 274 277" fill="none"> <path d="M189.178 8.85938L182.165 6.98035L183.876 9.51973L175.887 21.1379L174.8 7.46045L178.224 5.92437L168.69 3.36982L170.38 5.87246L170.589 7.76074L163.842 17.7551L162.541 3.83399L165.358 2.4769L156.114 0L158.159 3.03256L160.776 25.2572L162.154 23.3592L164.102 20.4957L170.904 10.6405L172.802 28.4795L185.399 10.6733L189.178 8.85938Z" fill="white"></path> <path d="M185.695 31.5292L191.879 35.0992L190.634 32.0945L194.286 29.2492L200.73 32.9692L200.019 37.2006L196.373 37.6942L205.025 42.6892L204.062 39.9164L207.201 18.7612L205.824 17.9662L189.093 30.6848L185.695 31.5292ZM202.408 22.9223L201.039 31.1733L195.739 28.1133L202.408 22.9223Z" fill="white"></path> <path d="M215.382 51.6136L222.871 59.1019L222.34 55.0077L234.623 42.7253L237.041 45.1436L236.108 53.2046L241.39 47.074L227.347 33.0309L221.216 38.313L229.277 37.3796L231.653 39.7554L219.286 52.1227L215.382 51.6136Z" fill="white"></path> <path d="M250.499 83.9196C247.77 83.6936 242.191 84.351 240.076 80.6878C237.931 76.9725 240.847 73.1417 245.315 70.5617C249.784 67.9817 254.277 68.2631 256.077 71.3808C258.012 74.7323 255.908 77.7483 253.694 82.0746L262.138 77.1996L258.612 75.7715C259.057 73.7825 258.694 71.7747 257.944 70.4757C254.659 64.7859 248.702 63.1677 242.155 66.9477C236.907 69.9777 234.927 75.7282 238.032 81.1062C239.022 82.8209 240.434 84.1877 242.61 84.8366L242.055 88.7946L250.499 83.9196Z" fill="white"></path> <path d="M249.868 109.195L252.609 119.424L254.197 115.613L270.105 111.351L273.415 113.849L270.674 103.62L269.134 107.263L262.035 109.165L259.674 100.356L266.658 98.4845L269.967 100.983L267.227 90.7539L265.687 94.3965L249.546 98.7214L246.421 96.3289L249.161 106.558L250.749 102.747L258.023 100.798L260.383 109.608L252.994 111.588L249.868 109.195Z" fill="white"></path> <path d="M266.892 186.692L268.973 178.926L266.253 180.961L254.428 171.892L269.264 169.842L270.572 172.956L273.313 162.727L270.195 165.091L247.747 168.89L249.622 170.355L250.197 170.758L265.15 182.529L266.892 186.692Z" fill="white"></path> <path d="M253.435 212.571L258.73 203.399L255.066 204.886L240.594 196.531L240.076 192.629L234.781 201.801L238.598 200.229L252.862 208.464L253.435 212.571Z" fill="white"></path> <path d="M226.708 213.258L223.335 216.63C223.335 216.63 223.229 216.652 219.601 220.279C213.916 225.964 214.552 232.116 218.774 236.337C224.183 241.747 230.484 239.944 234.705 235.722L241.939 228.489L238.014 228.977L226.198 217.161L226.708 213.258ZM234.132 233.919C230.335 237.716 225.732 236.507 221.956 232.731C218.201 228.977 217.353 224.946 220.831 221.467L222.698 219.6L235.575 232.477L234.132 233.919Z" fill="white"></path> <path d="M194.014 255.418L198.569 262.107L214.443 252.942L210.526 252.397L202.171 237.926L203.673 234.288L187.435 243.663L190.731 251.771L191.483 243.473L198.264 239.558L202.374 246.677L199.022 248.612L194.48 246.385L199.595 255.244L199.937 250.197L203.289 248.262L207.249 255.121L201.559 258.406L194.014 255.418Z" fill="white"></path> <path d="M158.485 264.318C160.175 270.511 165.26 274.305 171.867 272.534C178.127 270.857 181.088 265.219 179.333 258.67C177.524 251.918 172.32 248.84 165.951 250.453C159.607 252.277 156.647 257.574 158.485 264.318ZM171.409 270.825C167.113 271.945 164.277 267.735 163.027 263.07C161.769 258.376 162.12 253.312 166.409 252.163C170.727 251.006 173.526 255.194 174.792 259.918C176.049 264.612 175.706 269.704 171.409 270.825Z" fill="white"></path> <path d="M84.2373 267.337L91.2499 269.216L89.5388 266.677L97.528 255.058L98.6151 268.736L95.1908 270.272L104.725 272.827L103.035 270.324L102.826 268.436L109.573 258.441L110.874 272.362L108.057 273.719L117.301 276.196L115.256 273.164L112.639 250.939L111.261 252.837L109.313 255.701L102.511 265.556L100.613 247.717L88.0155 265.523L84.2373 267.337Z" fill="white"></path> <path d="M87.7196 244.667L81.5362 241.097L82.7805 244.102L79.1286 246.947L72.6854 243.227L73.3964 238.996L77.0415 238.502L68.3899 233.507L69.3525 236.28L66.2144 257.435L67.5914 258.23L84.3222 245.512L87.7196 244.667ZM71.0071 253.274L72.376 245.023L77.6761 248.083L71.0071 253.274Z" fill="white"></path> <path d="M58.0326 224.583L50.5443 217.094L51.0746 221.189L38.7922 233.471L36.3739 231.053L37.3073 222.992L32.0252 229.122L46.0683 243.165L52.1989 237.883L44.1379 238.817L41.762 236.441L54.1293 224.074L58.0326 224.583Z" fill="white"></path> <path d="M22.9162 192.277C25.6448 192.503 31.2235 191.845 33.3385 195.509C35.4835 199.224 32.5683 203.055 28.0996 205.635C23.6309 208.215 19.1383 207.933 17.3383 204.816C15.4033 201.464 17.5072 198.448 19.7206 194.122L11.2768 198.997L14.8033 200.425C14.3582 202.414 14.7207 204.422 15.4707 205.721C18.7557 211.41 24.7129 213.029 31.26 209.249C36.5081 206.219 38.4882 200.468 35.3832 195.09C34.3932 193.375 32.9805 192.009 30.8045 191.36L31.36 187.402L22.9162 192.277Z" fill="white"></path> <path d="M23.5469 167.001L20.806 156.772L19.2183 160.583L3.30945 164.846L0 162.347L2.74089 172.576L4.28058 168.934L11.3801 167.031L13.7406 175.841L6.75692 177.712L3.44747 175.213L6.18836 185.442L7.72805 181.8L23.8687 177.475L26.9944 179.867L24.2535 169.638L22.6657 173.449L15.3923 175.398L13.0319 166.589L20.4212 164.609L23.5469 167.001Z" fill="white"></path> <path d="M6.52313 89.5044L4.44223 97.2705L7.16172 95.235L18.9872 104.305L4.15114 106.355L2.84272 103.24L0.10183 113.469L3.2198 111.106L25.6681 107.306L23.7934 105.841L23.218 105.438L8.2651 93.6671L6.52313 89.5044Z" fill="white"></path> <path d="M19.9797 63.6257L14.6847 72.7969L18.3492 71.3099L32.8205 79.6649L33.3389 83.5669L38.6339 74.3957L34.8165 75.9676L20.5531 67.7326L19.9797 63.6257Z" fill="white"></path> <path d="M46.7074 62.9388L50.0803 59.5659C50.0803 59.5659 50.1864 59.5447 53.8138 55.9172C59.499 50.2321 58.8626 44.0803 54.6411 39.8588C49.2318 34.4495 42.9314 36.2526 38.71 40.474L31.4763 47.7077L35.4007 47.2198L47.2165 59.0356L46.7074 62.9388ZM39.2828 42.2771C43.0799 38.48 47.6832 39.6891 51.4591 43.4651C55.2139 47.2198 56.0624 51.2503 52.5834 54.7293L50.7167 56.5961L37.8403 43.7196L39.2828 42.2771Z" fill="white"></path> <path d="M79.4005 20.7784L74.8459 14.0896L58.9716 23.2546L62.8886 23.799L71.2436 38.2703L69.7416 41.9088L85.9796 32.5338L82.6838 24.4253L81.9319 32.723L75.1509 36.638L71.0409 29.5192L74.3925 27.5842L78.9346 29.8115L73.8196 20.9521L73.4775 25.9994L70.1259 27.9344L66.1659 21.0755L71.8557 17.7905L79.4005 20.7784Z" fill="white"></path> <path d="M114.93 11.8783C113.24 5.68487 108.154 1.89172 101.548 3.66204C95.2884 5.33919 92.3268 10.9778 94.0816 17.5268C95.8908 24.2786 101.095 27.3566 107.464 25.7431C113.808 23.919 116.768 18.6224 114.93 11.8783ZM102.006 5.37173C106.302 4.25155 109.138 8.46094 110.388 13.1264C111.646 17.8208 111.295 22.8843 107.006 24.0334C102.688 25.1903 99.889 21.0022 98.6234 16.2788C97.3655 11.5844 97.7092 6.49191 102.006 5.37173Z" fill="white"></path> </svg> 