<?xml version="1.0" encoding="UTF-8"?> <svg xmlns="http://www.w3.org/2000/svg" width="360" height="444" viewBox="0 0 360 444" fill="none"> <path fill-rule="evenodd" clip-rule="evenodd" d="M183.781 62.477C178.73 63.5369 177.068 64.603 175.26 67.9428C174.037 70.2019 173.912 71.0433 174.196 75.1127C174.609 81.0372 176.992 89.8491 179.964 96.4507C183.401 104.081 191.843 118.666 195.694 123.625C197.537 125.998 198.933 128.047 198.798 128.177C198.663 128.308 183.456 129.065 165.005 129.859C38.4532 135.305 14.9416 136.6 7.19006 138.55C1.5665 139.964 0.986773 141.523 3.9805 147.181C6.23753 151.447 8.48565 153.036 12.992 153.549C16.8705 153.991 16.6909 153.557 15.8299 160.422C15.5124 162.95 14.5771 172.02 13.7507 180.578C12.9248 189.136 11.6762 201.468 10.9769 207.982L9.70455 219.825L10.9657 222.39C13.7875 228.132 16.3573 231.942 18.2588 233.205C19.3641 233.94 20.4831 234.913 20.7453 235.367C21.9839 237.512 26.2494 234.974 27.6312 231.27C28.0771 230.074 29.2051 227.929 30.138 226.503C31.0709 225.078 32.2684 222.465 32.7987 220.697C35.8674 210.465 44.553 198.461 51.355 195.052L53.2702 194.092V195.772C53.2702 198.487 51.5964 206.259 49.6973 212.365C47.4801 219.493 47.4867 220.824 49.758 225.017C50.7688 226.884 52.0852 229.32 52.6827 230.429C54.0158 232.903 58.7023 236.769 60.3695 236.769C62.2597 236.769 63.7973 234.881 66.6114 229.107C72.0192 218.009 73.8118 209.852 73.7286 196.715C73.6822 189.383 73.4795 187.554 72.3914 184.667C70.6076 179.935 68.63 177.667 64.5458 175.669C60.5092 173.694 57.0785 173.487 49.6652 174.768C43.7129 175.798 41.0741 177.193 36.9881 181.47C35.117 183.429 33.4623 184.911 33.3107 184.765C33.1596 184.618 33.3124 179.466 33.6514 173.317C33.9897 167.167 34.3286 160.471 34.4041 158.436L34.5408 154.737L58.6214 154.603C90.9857 154.423 140.082 153.84 178.341 153.182L209.764 152.641L210.899 153.931C216.478 160.271 223.286 170.323 226.822 177.441C232.081 188.029 236.604 202.645 236.286 208.03L236.104 211.123L228.761 204.207C220.173 196.12 217.9 193.428 209.588 181.497C206.186 176.614 202.535 171.717 201.474 170.615C199.72 168.793 199.323 168.64 197.081 168.931C192.716 169.499 192.53 170.128 194.739 176.879C197.457 185.193 208.35 205.083 214.907 213.709C221.928 222.945 231.878 230.868 238.356 232.38C243.761 233.642 248.911 228.719 252.456 218.903C254.338 213.69 254.718 204.783 253.388 197.068C251.417 185.648 244.643 169.485 236.481 156.729L233.487 152.051L242.822 152.063C247.957 152.07 272.25 151.766 296.807 151.389C330.535 150.87 342.29 150.865 344.865 151.366C350.046 152.375 351.712 151.482 354.54 146.184C355.778 143.864 356.723 141.468 356.639 140.86C356.555 140.253 356.994 139.216 357.615 138.555C358.875 137.215 359.445 135.009 359.877 129.796C360.151 126.492 360.068 126.195 358.555 125.042C357.668 124.365 356.392 123.811 355.722 123.811C355.052 123.811 353.898 123.26 353.159 122.588C351.911 121.451 351.546 121.408 348.067 121.984C341.794 123.022 337.925 123.246 316.339 123.815C304.912 124.117 277.644 125.142 255.743 126.093C233.843 127.044 215.723 127.628 215.478 127.39C214.063 126.019 206.487 112.954 202.374 104.793C197.47 95.0612 192.306 83.3713 192.73 82.9598C193.182 82.5212 198.288 86.9629 201.728 90.7861C206.39 95.9683 210.944 100.424 212.753 101.572C215.079 103.05 217.015 102.001 218.832 98.2788C219.666 96.5706 220.348 94.829 220.348 94.4088C220.348 93.9893 220.762 93.2021 221.268 92.6597C221.821 92.0679 222.33 90.0456 222.541 87.6043L222.893 83.535L216.418 77.2629C209.455 70.5183 203.879 66.4524 197.789 63.6786C193.204 61.5901 189.514 61.2737 183.781 62.477ZM288.582 159.842C284.19 160.902 281.569 162.221 276.991 165.678C272.382 169.156 269.044 173.377 265.892 179.714C263.493 184.536 263.455 184.711 263.455 190.952C263.455 198.722 264.34 201.767 268.632 208.754C275.904 220.592 288.142 228.124 300.106 228.124C304.034 228.124 313.973 226.142 318.708 224.415C329.702 220.404 342.431 209.111 345.708 200.461C346.128 199.352 346.886 197.666 347.392 196.715C347.898 195.764 348.454 193.5 348.627 191.683C348.975 188.022 348.292 186.629 346.148 186.629C345.436 186.629 344.554 186.339 344.187 185.984C343.695 185.507 342.043 185.507 337.874 185.983C334.769 186.338 331.815 186.782 331.311 186.97C330.808 187.157 329.668 188.519 328.779 189.996C327.891 191.472 325.565 194.3 323.61 196.28C318.47 201.484 307.682 207.377 303.295 207.377C300.429 207.377 292.854 205.891 290.161 204.8L287.847 203.863L291.11 202.111C292.905 201.147 299.056 198.007 304.779 195.132C310.501 192.258 315.684 189.493 316.296 188.988C319.643 186.224 322.598 176.179 320.678 174.086C320.174 173.536 319.321 172.052 318.782 170.789C318.243 169.525 317.214 167.873 316.493 167.118C313.25 163.716 306.138 160.667 300.022 160.056C297.569 159.812 294.76 159.478 293.779 159.315C292.798 159.152 290.459 159.389 288.582 159.842ZM170.106 164.527C169.452 164.658 167.445 165.122 165.646 165.557C163.848 165.992 161.645 166.507 160.752 166.7C158.112 167.271 157.415 169.379 157.765 175.738C158.115 182.089 157.211 190.653 155.51 197.108C154 202.842 151.326 208.887 150.756 207.855C150.522 207.434 149.764 204.67 149.071 201.714C147.516 195.094 147.432 187.628 148.816 179.211C150.246 170.512 150.206 168.097 148.616 167.322C147.915 166.981 146.922 166.365 146.41 165.953C145.426 165.161 143.975 165.314 138.52 166.781C135.718 167.535 135.377 167.821 134.267 170.343C131.243 177.213 129.643 185.532 129.028 197.579C128.472 208.454 130.008 215.236 135.163 224.666C139.071 231.814 140.388 233.514 144.112 236.214C148.298 239.248 150.132 239.876 153.415 239.398C159.143 238.566 164.144 233.275 169.316 222.576C175.739 209.291 178.851 194.82 178.926 177.897C178.97 167.899 178.647 166.458 176.368 166.458C175.805 166.458 174.859 165.94 174.268 165.306C173.214 164.177 172.502 164.044 170.106 164.527ZM297.052 167.613C299.547 168.847 304.184 173.173 304.184 174.267C304.184 175.103 298.772 180.002 292.263 185.057C289.5 187.204 285.563 190.264 283.515 191.857C279.119 195.275 278.915 195.12 278.915 188.358C278.914 182.764 280.055 180.845 288.215 172.714C291.603 169.339 294.451 166.552 294.546 166.518C294.64 166.486 295.768 166.978 297.052 167.613Z" fill="#150E70"></path> <path fill-rule="evenodd" clip-rule="evenodd" d="M95.7329 240.254C93.4164 240.645 90.607 241.483 89.4904 242.115C85.5222 244.361 81.8102 252.023 81.8102 257.965C81.8102 260.498 81.7124 261.913 81.4216 263.367C81.1309 264.821 80.0413 266.436 78.9859 266.213C78.4139 266.091 69.1159 265.467 58.3242 264.824C24.6696 262.82 6.16206 263.186 2.18014 265.935C-1.60497 268.547 -0.710123 271.094 6.83216 279.18C7.84651 280.267 8.67655 281.347 8.67655 281.579C8.67655 281.812 10.6185 282.932 12.9926 284.068C17.031 286.003 17.6714 286.136 22.9519 286.132C32.8243 286.125 77.7819 283.022 79.0555 282.259C79.3914 282.058 79.4776 282.756 79.2707 283.995C79.0799 285.135 79.1804 286.151 79.4943 286.252C80.0734 286.439 79.1726 343.358 78.5656 344.98C78.3997 345.422 77.8556 349.796 77.3568 354.699C76.522 362.903 76.5279 363.845 77.4347 366.513C78.9199 370.886 82.8858 376.965 85.7255 379.22C89.8704 382.512 91.6226 381.846 94.5022 375.882C97.7462 369.164 97.77 369.072 99.7095 355.999C101.537 343.68 101.561 343.224 101.215 327.63C101.022 318.914 100.556 303.742 100.181 293.916C99.4693 275.265 99.1613 256.394 99.549 255.159C99.6732 254.763 100.677 254.438 101.781 254.438C104.31 254.438 104.48 255.017 104.606 264.049C104.715 271.829 105.837 275.008 108.84 276.041C110.336 276.556 110.671 276.398 112.496 274.312C113.601 273.049 115.577 269.931 116.887 267.384C119.032 263.212 119.269 262.321 119.269 258.413C119.269 252.955 118.303 247.75 116.871 245.488C116.178 244.393 114.255 243.005 111.72 241.769C107.037 239.487 102.706 239.076 95.7329 240.254Z" fill="#150E70"></path> <path d="M23.7664 316.172C26.7759 314.203 31.9891 310.697 35.3508 308.38C38.7131 306.063 41.8799 304.168 42.3888 304.168C43.8217 304.168 58.6221 317.599 60.7465 320.828L62.022 322.766L58.6254 325.75C56.7575 327.391 50.6709 332.171 45.1007 336.372C37.9799 341.742 34.5273 343.944 33.4733 343.784C31.182 343.44 29.0186 341.82 26.9818 338.927C25.9661 337.483 24.1611 335.832 22.9716 335.258C20.2925 333.965 17.0451 329.319 16.0629 325.374C15.1847 321.846 15.2934 321.716 23.7664 316.172Z" fill="#150E70"></path> <path d="M89.2669 177.363C91.7609 175.745 96.081 172.862 98.8669 170.958C101.653 169.054 104.278 167.496 104.699 167.496C105.887 167.496 118.152 178.536 119.912 181.19L120.969 182.783L118.155 185.235C116.607 186.584 111.563 190.513 106.947 193.966C101.046 198.379 98.1844 200.189 97.311 200.058C95.4122 199.775 93.6194 198.444 91.9315 196.066C91.0898 194.879 89.594 193.522 88.6083 193.05C86.3881 191.987 83.697 188.169 82.8831 184.926C82.1553 182.027 82.2454 181.92 89.2669 177.363Z" fill="#150E70"></path> <path d="M178.488 2.77726C178.488 2.20498 178.938 1.30075 179.487 0.768235C180.736 -0.442025 185.577 -0.180392 188.552 1.25809C189.658 1.79291 190.838 2.23034 191.175 2.23034C193.344 2.23034 199.893 6.33773 199.893 7.69783C199.893 8.70061 219.595 26.8585 228.363 33.9368C233.512 38.0932 263.675 58.1103 271.415 62.507C273.379 63.6233 276.887 65.9217 279.209 67.6149C285.238 72.0093 298.354 79.6777 316.53 89.4341C318.71 90.6041 322.72 93.1618 325.442 95.1172C328.162 97.0726 332.466 99.6672 335.004 100.882C341.142 103.82 341.188 105.491 335.221 108.522C330.08 111.132 325.342 110.322 312.068 104.558C307.437 102.547 302.508 100.605 301.115 100.241C297.913 99.4055 285.615 94.0689 279.651 90.9274C277.153 89.6111 273.101 87.4879 270.648 86.2091C268.196 84.9302 264.316 82.6659 262.027 81.1773C259.738 79.6881 256.259 77.6093 254.297 76.557C249.902 74.1993 233.086 63.5807 227.838 59.8485C225.713 58.3368 222.306 56.156 220.269 55.0023C213.885 51.387 207.695 46.2348 196.238 35.0013C186.553 25.5059 183.485 22.7523 184.682 24.6294C185.158 25.3751 181.574 31.544 178.946 34.5039C170.594 43.9105 150.511 58.8843 129.646 71.263C107.173 84.5948 67.6978 100.975 48.0195 105.132C41.7062 106.467 27.3119 106.076 24.8361 104.504C23.0583 103.374 21.5183 100.868 21.5183 99.1024C21.5183 96.6617 26.8256 93.6003 37.572 89.8416C46.0948 86.8604 53.1911 83.9874 59.0073 81.1629C61.4766 79.9642 66.4265 77.7753 70.0071 76.3C80.6049 71.9327 101.879 60.6502 113.373 53.3016C138.009 37.5492 160.087 20.9738 165.331 14.2932C167.37 11.6951 168.118 11.3776 175.66 9.91029C177.169 9.61637 177.265 9.43368 176.941 7.46845C176.685 5.91528 176.846 5.13958 177.539 4.58113C178.061 4.16157 178.488 3.34954 178.488 2.77726Z" fill="#150E70"></path> <path d="M264.023 309.901C271.866 302.319 280.626 298.541 295.372 296.382C300.028 295.701 307.205 296.025 311.567 297.114C313.116 297.501 317.077 299.08 320.368 300.625C325.194 302.889 327.536 304.577 332.458 309.333C337.861 314.554 339.009 316.123 342.445 322.981C352.955 343.959 354.184 373.047 345.593 397.439C338.446 417.728 326.3 434.38 314.604 439.92C309.74 442.224 305.436 443.109 296.677 443.604C291.135 443.919 290.857 443.862 288.412 441.913C285.95 439.95 280.938 431.369 280.938 429.115C280.938 426.449 282.93 425.206 289.184 423.97C294.296 422.96 296.168 422.207 299.949 419.639C318.683 406.916 330.391 382.996 330.472 357.278C330.534 337.363 324.534 325.058 311.919 319.23C307.78 317.318 306.694 317.116 300.568 317.116C293.943 317.116 293.658 317.183 287.542 320.168C282.723 322.521 279.985 324.471 275.595 328.677C269.191 334.815 259.816 346.602 259.81 348.526C259.807 349.221 259.332 350.667 258.754 351.739C258.175 352.812 257.702 354.057 257.702 354.505C257.702 356.439 254.035 362.476 252.431 363.183C250.909 363.853 250.333 363.649 247.563 361.455C244.022 358.649 241.163 353.987 237.49 345.025C236.109 341.655 234.321 337.98 233.517 336.856C230.228 332.261 224.083 326.754 220.031 324.77C212.26 320.966 203.338 321.679 200.817 326.305C198.617 330.341 201.377 344.433 207.105 358.414C210.21 365.991 210.655 367.657 210.359 370.623C210.171 372.513 209.496 374.561 208.858 375.178C207.78 376.22 207.517 376.207 205.167 374.983C201.644 373.149 197.66 368.575 193.168 361.207C188.152 352.98 186.156 348.516 183.968 340.63C179.929 326.077 182.346 312.03 190.045 305.316C194.49 301.441 205.661 298.731 215.2 299.215C220.572 299.488 221.728 299.821 228.362 303.008C236.663 306.998 243.452 312.575 249.366 320.263L252.992 324.977L255.805 320.052C257.551 316.995 260.667 313.145 264.023 309.901Z" fill="#150E70"></path> <path d="M129.032 316.172C132.042 314.203 137.255 310.697 140.617 308.38C143.979 306.063 147.146 304.168 147.655 304.168C149.087 304.168 163.888 317.599 166.012 320.828L167.288 322.766L163.891 325.75C162.023 327.391 155.937 332.171 150.367 336.372C143.246 341.742 139.793 343.944 138.739 343.784C136.448 343.44 134.284 341.82 132.248 338.927C131.232 337.483 129.427 335.832 128.237 335.258C125.558 333.965 122.311 329.319 121.329 325.374C120.451 321.846 120.559 321.716 129.032 316.172Z" fill="#150E70"></path> <path fill-rule="evenodd" clip-rule="evenodd" d="M325.425 255.287C291.823 256.297 256.202 257.91 192.833 261.288C146.93 263.736 127.573 265.647 124.605 268.024C122.618 269.616 124.971 275.97 128.388 278.24C129.503 278.98 131.549 279.84 132.935 280.151C136.24 280.892 194.121 281.132 227.319 280.542C263.016 279.908 313.265 278.837 323.641 278.489C328.383 278.33 334.403 278.126 337.019 278.036C343.773 277.805 345.281 277.106 347.108 273.363C347.936 271.667 348.613 269.932 348.613 269.507C348.613 269.083 349.036 268.15 349.553 267.436C350.098 266.682 350.632 264.339 350.826 261.857L351.159 257.578L349.441 256.896C348.495 256.521 346.879 255.861 345.848 255.43C344.818 255 343.212 254.689 342.281 254.739C341.349 254.789 333.764 255.036 325.425 255.287Z" fill="#150E70"></path> </svg> 