<?xml version="1.0" encoding="UTF-8"?> <svg xmlns="http://www.w3.org/2000/svg" id="Layer_1" data-name="Layer 1" viewBox="0 0 1469 1469"> <defs> <style> .cls-1 { fill: #ecece7; fill-rule: evenodd; stroke-width: 0px; } </style> </defs> <path class="cls-1" d="m992.6,120.75c39.23,3.53,79.51,7.15,106.96-23.12l3.95,2.28c-12.49,38.91,10.79,71.98,33.46,104.19,13.63,19.37,27.04,38.43,32.32,58.25,5.03,18.87.25,34.12-8.45,46.09,11.98-8.69,27.24-13.47,46.13-8.44,19.83,5.28,38.91,18.68,58.29,32.3,32.24,22.65,65.34,45.92,104.27,33.43l1.9,3.29c-30.29,27.43-26.67,67.68-23.14,106.88,2.12,23.57,4.21,46.76-1.13,66.56-5.08,18.85-16.87,29.66-30.4,35.67,14.74-1.54,30.36,1.95,44.22,15.74,14.55,14.48,24.37,35.6,34.36,57.08,16.6,35.71,33.66,72.38,73.65,81.03v3.79c-39.98,8.6-56.98,45.25-73.54,80.93-9.95,21.46-19.75,42.57-34.28,57.04-13.84,13.77-29.45,17.24-44.19,15.68,13.54,6.03,25.33,16.85,30.43,35.71,5.37,19.8,3.31,42.99,1.22,66.56-3.48,39.2-7.05,79.44,23.28,106.92l-3.39,5.87c-38.95-12.53-72.02,10.69-104.23,33.3-19.36,13.59-38.42,26.97-58.25,32.22-18.88,5-34.15.2-46.14-8.5,8.71,11.98,13.51,27.23,8.51,46.11-5.26,19.81-18.65,38.85-32.25,58.21-22.62,32.18-45.87,65.22-33.32,104.15l-3.28,1.89c-27.49-30.3-67.77-26.73-107-23.26-23.59,2.09-46.79,4.14-66.61-1.22-18.87-5.11-29.7-16.9-35.74-30.42,1.56,14.72-1.91,30.33-15.69,44.15-14.47,14.52-35.6,24.31-57.07,34.26-35.71,16.54-72.39,33.53-80.99,73.48h-3.8c-8.66-39.96-45.36-57-81.09-73.59-21.49-9.97-42.63-19.8-57.12-34.33-13.8-13.84-17.29-29.45-15.75-44.16-6.02,13.51-16.83,25.28-35.69,30.36-19.81,5.33-43.02,3.25-66.61,1.13-39.23-3.53-79.52-7.15-106.97,23.12l-3.95-2.28c12.49-38.91-10.79-71.98-33.46-104.19-13.63-19.37-27.04-38.43-32.33-58.25-5.03-18.87-.25-34.12,8.45-46.09-11.98,8.69-27.24,13.47-46.13,8.44-19.84-5.28-38.91-18.68-58.29-32.3-32.24-22.66-65.34-45.92-104.27-33.44l-1.9-3.28c30.29-27.43,26.67-67.68,23.14-106.88-2.12-23.57-4.21-46.77,1.13-66.56,5.09-18.86,16.87-29.66,30.39-35.68-14.73,1.54-30.35-1.95-44.21-15.74-14.55-14.48-24.37-35.6-34.36-57.07-16.6-35.72-33.65-72.39-73.64-81.04v-3.79c39.98-8.6,56.98-45.25,73.54-80.93,9.96-21.46,19.75-42.57,34.28-57.03,13.84-13.77,29.45-17.24,44.18-15.68-13.53-6.03-25.32-16.85-30.43-35.71-5.37-19.8-3.31-42.99-1.22-66.56,3.48-39.2,7.05-79.45-23.28-106.91l3.39-5.88c38.95,12.53,72.02-10.69,104.23-33.3,19.37-13.6,38.42-26.97,58.25-32.22,18.88-5,34.15-.2,46.14,8.5-8.71-11.98-13.51-27.24-8.51-46.1,5.26-19.82,18.64-38.85,32.25-58.21,22.63-32.18,45.86-65.23,33.32-104.15l3.28-1.89c27.49,30.31,67.77,26.74,107,23.26,23.59-2.09,46.79-4.15,66.61,1.22,18.87,5.11,29.7,16.89,35.74,30.42-1.56-14.72,1.91-30.33,15.69-44.16,14.47-14.52,35.6-24.31,57.07-34.26,35.71-16.54,72.39-33.53,80.99-73.48h3.8c8.66,39.96,45.36,57,81.09,73.59,21.49,9.98,42.64,19.79,57.12,34.33,13.8,13.84,17.29,29.45,15.76,44.17,6.02-13.51,16.84-25.28,35.69-30.36,19.81-5.34,43.02-3.25,66.61-1.13h0ZM437.96,1248.12c284.09,161.93,645.61,65.09,809.97-217.19,162.27-283.48,65.38-644.99-216.9-810.04C746.95,58.95,385.43,155.79,221.07,438.07c-162.28,283.48-65.39,644.99,216.9,810.05h-.01Z"></path> </svg> 