<?xml version="1.0" encoding="UTF-8"?> <svg xmlns="http://www.w3.org/2000/svg" width="166" height="166" viewBox="0 0 166 166" fill="none"> <path d="M83 166C128.84 166 166 128.84 166 83C166 37.1604 128.84 0 83 0C37.1604 0 0 37.1604 0 83C0 128.84 37.1604 166 83 166Z" fill="#150E70"></path> <path d="M83 157.286C124.027 157.286 157.286 124.027 157.286 83C157.286 41.9731 124.027 8.71414 83 8.71414C41.973 8.71414 8.71413 41.9731 8.71413 83C8.71413 124.027 41.973 157.286 83 157.286Z" fill="white"></path> <path d="M122.3 64.5148C122.3 71.0504 118.094 78.4272 110.674 85.8148C101.906 94.5398 94.9064 90.7867 92.6416 88.2199C91.789 87.1803 91.2377 85.9268 91.0476 84.5959C90.8574 83.2649 91.0357 81.9072 91.5631 80.6705C91.9838 79.9048 91.7573 79.3871 91.5631 79.2469C90.9808 78.9018 90.2258 79.6783 89.967 79.9479C86.807 83.2481 85.1138 89.3954 92.5877 93.8388C100.062 98.2821 109.175 94.8633 113.446 90.9484C116.961 87.713 119.291 85.103 124.565 77.2517C129.838 69.4003 129.86 67.761 129.59 63.5118C129.17 56.8037 123.368 52.177 120.294 49.0386C116.193 44.9327 112.312 40.6128 108.668 36.0968C103.772 30.1975 102.132 26.0993 101.291 23.7266C100.45 21.354 100.493 20.4912 100.051 20.4912C99.6086 20.4912 99.5871 21.3647 98.7674 23.856C97.6889 27.1885 94.2162 32.6133 91.1425 36.1399C89.3002 38.1847 87.283 40.0647 85.1138 41.7588C84.5422 42.1579 83.5932 42.6863 84.5422 43.6785C85.4913 44.6707 89.3091 46.1267 91.7033 43.9266C94.2081 41.4513 96.5058 38.7749 98.5733 35.9242C99.0047 35.3419 99.3606 34.7918 99.6518 34.3389C99.8028 34.0693 100.126 33.9938 100.277 34.3389C100.903 35.7301 102.758 39.1813 107.935 44.1207C114.783 50.6563 116.875 52.8133 118.115 54.4094C120.111 56.9115 122.3 59.9852 122.3 64.5148Z" fill="#6C6C6C" fill-opacity="0.28"></path> <path d="M94.529 74.4153C94.7662 74.1241 98.8429 67.6963 106.576 70.7269C112.896 73.2074 111.871 79.8616 111.666 80.7352C111.461 81.6088 110.588 82.0186 110.059 81.0264C108.696 78.7266 106.605 76.9469 104.117 75.9683C101.032 74.7496 98.2497 75.3212 95.7908 75.9036C93.925 76.3458 93.6123 75.5585 94.529 74.4153Z" fill="#6C6C6C" fill-opacity="0.28"></path> <path d="M101.291 122.947C94.7554 122.947 87.3786 118.741 79.991 111.31C71.2661 102.456 75.0192 95.4996 77.6507 93.2348C78.6898 92.3811 79.9432 91.8291 81.2745 91.6389C82.6057 91.4488 83.9636 91.6277 85.2001 92.1563C85.9658 92.5661 86.4835 92.3504 86.6237 92.1563C86.9688 91.5847 86.1923 90.819 85.9227 90.5709C82.5255 87.3571 76.3781 85.6962 71.9348 93.1701C67.4914 100.644 70.8563 109.768 74.8251 114.039C78.0605 117.555 80.6705 119.873 88.5218 125.158C96.3732 130.442 98.0125 130.453 102.262 130.184C108.97 129.752 113.597 123.961 116.735 120.887C120.846 116.792 125.166 112.911 129.677 109.261C135.705 104.354 139.761 102.725 142.166 101.884C144.571 101.043 145.401 101.086 145.401 100.644C145.401 100.202 144.527 100.18 142.036 99.3606C138.714 98.2821 133.279 94.8094 129.763 91.7249C127.713 89.8915 125.833 87.8774 124.144 85.707C123.745 85.1354 123.206 84.1863 122.214 85.1354C121.221 86.0845 119.765 89.9023 121.966 92.2857C124.437 94.8102 127.11 97.1294 129.957 99.2204C130.55 99.641 131.036 100.008 131.542 100.299C131.812 100.461 131.888 100.773 131.542 100.935C130.151 101.561 126.7 103.416 121.771 108.592C115.236 115.441 113.068 117.522 111.472 118.773C108.927 120.693 105.821 122.947 101.291 122.947Z" fill="#6C6C6C" fill-opacity="0.28"></path> <path d="M91.3906 95.1221C93.3229 96.3767 94.7516 98.2716 95.4261 100.475C96.1006 102.677 95.9777 105.047 95.079 107.169C92.5985 113.489 85.9443 112.464 85.0707 112.259C84.1971 112.054 83.7765 111.181 84.7795 110.641C87.0841 109.284 88.8655 107.191 89.8376 104.699C91.0563 101.625 90.4847 98.8429 89.9023 96.384C89.514 94.5074 90.2474 94.2054 91.3906 95.1221Z" fill="#6C6C6C" fill-opacity="0.28"></path> <path d="M42.9344 101.485C42.9344 94.9496 47.1405 87.5728 54.5604 80.1852C63.3285 71.4602 70.3278 75.2026 72.5926 77.7909C73.4463 78.83 73.9983 80.0834 74.1885 81.4147C74.3787 82.7459 74.1997 84.1038 73.6711 85.3403C73.2505 86.106 73.477 86.6237 73.6711 86.7639C74.2535 87.109 75.0084 86.3325 75.2673 86.0629C78.438 82.7627 80.1205 76.6154 72.6466 72.172C65.1727 67.7287 56.0811 71.1043 51.7672 75.0192C48.2513 78.2547 45.9218 80.8646 40.648 88.716C35.3742 96.5673 35.3742 98.2066 35.6438 102.456C36.0752 109.164 41.8667 113.791 44.9404 116.929C49.0383 121.038 52.9189 125.358 56.5664 129.871C61.4735 135.889 63.102 139.901 63.9432 142.36C64.7844 144.819 64.7413 145.595 65.1835 145.595C65.6257 145.595 65.6472 144.722 66.4669 142.23C67.5454 138.898 71.0181 133.473 74.0917 129.946C75.9341 127.902 77.9513 126.022 80.1205 124.327C80.6921 123.939 81.6411 123.4 80.6921 122.408C79.743 121.416 75.9252 119.96 73.5309 122.16C71.0262 124.635 68.7285 127.311 66.661 130.162C66.2404 130.755 65.8737 131.241 65.5825 131.747C65.4315 132.017 65.108 132.093 64.957 131.747C64.3315 130.356 62.4765 126.905 57.2998 121.966C50.4514 115.43 48.3592 113.273 47.1189 111.677C45.1345 109.089 42.9344 106.004 42.9344 101.485Z" fill="#6C6C6C" fill-opacity="0.28"></path> <path d="M70.7053 91.5847C69.4508 93.517 67.5558 94.9458 65.3529 95.6202C63.15 96.2947 60.78 96.1718 58.6587 95.2731C52.3388 92.7926 53.3633 86.1384 53.5682 85.2648C53.7731 84.3913 54.5928 83.9814 55.1859 84.9736C56.5468 87.2755 58.6386 89.056 61.1284 90.0317C64.2021 91.2504 66.9845 90.6788 69.4435 90.0964C71.3093 89.6542 71.622 90.4415 70.7053 91.5847Z" fill="#6C6C6C" fill-opacity="0.28"></path> <path d="M63.9432 43.1393C70.4788 43.1393 77.8556 47.3454 85.2432 54.7653C93.9682 63.5334 90.215 70.5327 87.6482 72.7976C86.6086 73.6502 85.3552 74.2015 84.0243 74.3916C82.6933 74.5818 81.3356 74.4034 80.0989 73.876C79.3331 73.4554 78.8155 73.6819 78.6753 73.876C78.3302 74.4584 79.1067 75.2242 79.3763 75.4722C82.6764 78.6429 88.8238 80.3362 93.2672 72.8515C97.7105 65.3668 94.2917 56.2644 90.3768 51.9936C87.1414 48.4778 84.5314 46.1483 76.6801 40.8745C68.8287 35.6007 67.2218 35.5899 62.9726 35.8164C56.2644 36.2478 51.6377 42.0608 48.5317 45.1129C44.4233 49.2111 40.1034 53.0917 35.5899 56.739C29.5612 61.6353 25.5061 63.2746 23.1011 64.1158C20.6961 64.957 19.8656 64.9139 19.8656 65.356C19.8656 65.7982 20.7392 65.8198 23.2305 66.6394C26.563 67.7179 31.9878 71.1906 35.5144 74.2751C37.5582 76.1145 39.4382 78.128 41.1333 80.293C41.5324 80.8646 42.0608 81.8137 43.053 80.8646C44.0452 79.9155 45.5012 76.0977 43.3011 73.7035C40.8176 71.209 38.134 68.9222 35.2772 66.8659C34.7674 66.4796 34.2383 66.1197 33.6918 65.7874C33.4222 65.6257 33.3467 65.3021 33.6918 65.1511C35.083 64.5256 38.5342 62.6706 43.4736 57.4939C50.0092 50.6887 52.1662 48.5317 53.7623 47.313C56.3399 45.2963 59.4136 43.1393 63.9432 43.1393Z" fill="#6C6C6C" fill-opacity="0.28"></path> <path d="M73.8437 70.8779C71.9114 69.6233 70.4826 67.7284 69.8082 65.5255C69.1337 63.3226 69.2566 60.9525 70.1553 58.8312C72.6358 52.5113 79.2793 53.5359 80.1636 53.7408C81.048 53.9457 81.447 54.8193 80.4548 55.3585C78.1502 56.7162 76.3688 58.809 75.3967 61.3009C74.178 64.3746 74.7496 67.1571 75.332 69.6161C75.7742 71.4818 74.9869 71.7946 73.8437 70.8779Z" fill="#6C6C6C" fill-opacity="0.28"></path> <path d="M43.506 43.6785H54.8948C57.9111 43.5072 60.8763 44.5123 63.1667 46.4826C64.1135 47.4221 64.8531 48.5495 65.3379 49.7922C65.8227 51.0348 66.0419 52.3652 65.9816 53.6976C66.0381 54.909 65.8431 56.119 65.4087 57.2513C64.9744 58.3836 64.3101 59.4136 63.4579 60.2764C62.1913 61.4834 60.629 62.3352 58.9283 62.7461L68.9042 75.9575H59.7587L51.0014 63.2314V75.9575H43.506V43.6785ZM51.0014 49.4808V58.3459H52.6946C54.3108 58.4801 55.9148 57.9726 57.1596 56.9331C57.5649 56.5204 57.8812 56.029 58.089 55.4892C58.2968 54.9493 58.3915 54.3726 58.3675 53.7947C58.4012 53.1646 58.2826 52.5357 58.0216 51.9612C57.7607 51.3868 57.3651 50.8837 56.8684 50.4945C55.6267 49.7348 54.1792 49.3805 52.727 49.4808H51.0014Z" fill="#150E70"></path> <path d="M80.2499 75.9575V60.8587L68.613 43.603H77.4674L83.9383 53.6221L90.4631 43.603H99.3174L87.6806 60.8587V75.9575H80.2499Z" fill="#150E70"></path> <path d="M121.124 46.1483L117.77 51.5407C116.31 50.1058 114.36 49.2773 112.313 49.2219C111.74 49.1685 111.162 49.2369 110.618 49.4228C110.073 49.6087 109.574 49.9078 109.153 50.3004C108.883 50.5654 108.67 50.883 108.527 51.2336C108.384 51.5842 108.315 51.9603 108.323 52.3387C108.311 52.6721 108.37 53.0041 108.497 53.3128C108.623 53.6215 108.814 53.8997 109.056 54.129L109.541 54.4849C109.755 54.63 109.983 54.7529 110.221 54.8516L110.954 55.1644C111.148 55.2506 111.493 55.3801 112.033 55.5526C112.572 55.7252 112.906 55.8654 113.198 55.9624L115.635 56.8792C117.252 57.4156 118.752 58.2537 120.057 59.3489C120.859 60.1224 121.487 61.0586 121.898 62.0947C122.309 63.1307 122.494 64.2427 122.44 65.356C122.516 66.8101 122.301 68.2647 121.808 69.6349C121.316 71.0051 120.555 72.2635 119.571 73.3368C117.458 75.5369 114.391 76.6369 110.372 76.6369C108.138 76.6989 105.921 76.2334 103.901 75.2781C102.129 74.363 100.516 73.1685 99.1233 71.7406L103.017 66.4237C103.928 67.3568 104.941 68.1851 106.036 68.8934C107.26 69.6694 108.675 70.0878 110.124 70.1013C111.353 70.1666 112.564 69.7834 113.532 69.0229C113.913 68.7061 114.216 68.306 114.418 67.8535C114.62 67.401 114.715 66.9081 114.697 66.4129C114.702 65.9688 114.608 65.529 114.421 65.1259C114.235 64.7228 113.96 64.3666 113.618 64.0834C112.442 63.3128 111.164 62.7102 109.822 62.2931L107.136 61.3764C105.452 60.8813 103.905 60.0027 102.618 58.8096C101.939 58.0473 101.417 57.1587 101.082 56.1945C100.747 55.2304 100.606 54.2097 100.666 53.1907C100.621 51.8527 100.848 50.5194 101.334 49.2718C101.819 48.0241 102.553 46.8881 103.491 45.9326C104.558 44.9176 105.821 44.1319 107.203 43.6237C108.585 43.1154 110.056 42.8955 111.526 42.9775C114.986 42.9572 118.357 44.0709 121.124 46.1483Z" fill="#150E70"></path> <path d="M68.2032 98.9616V103.728H49.3945L56.7713 95.7261C58.2181 94.1536 59.5618 92.4893 60.7941 90.7435C61.6584 89.5213 62.1696 88.0848 62.2716 86.5914C62.2949 86.1433 62.2212 85.6956 62.0555 85.2786C61.8899 84.8617 61.6362 84.4854 61.3117 84.1756C60.6755 83.6664 59.8705 83.416 59.0577 83.4746C58.6405 83.4516 58.2233 83.5187 57.8344 83.6713C57.4455 83.8239 57.0939 84.0584 56.8037 84.3589C56.0722 85.1868 55.6861 86.2638 55.7252 87.3679H50.0955C50.2002 85.0877 51.1009 82.9163 52.6407 81.2313C53.5337 80.3632 54.5988 79.6921 55.7673 79.2611C56.9357 78.8301 58.1816 78.6489 59.4244 78.7292C61.7636 78.6244 64.0499 79.4459 65.7874 81.0156C66.5486 81.7859 67.1441 82.7037 67.5373 83.7127C67.9305 84.7216 68.1131 85.8004 68.0738 86.8826C68.0537 88.8314 67.4071 90.722 66.2296 92.275C65.0432 93.7997 63.7222 95.2146 62.2824 96.5026L59.7048 98.9616H68.2032Z" fill="#150E70"></path> <path d="M91.919 91.5092C91.919 96.0029 90.7399 99.4145 88.3816 101.744C86.5825 103.374 84.2415 104.277 81.8137 104.277C79.3859 104.277 77.0448 103.374 75.2457 101.744C72.8946 99.4217 71.7155 96.0101 71.7083 91.5092C71.7011 87.0084 72.8802 83.5824 75.2457 81.2313C77.047 79.6057 79.3873 78.7058 81.8137 78.7058C84.2401 78.7058 86.5803 79.6057 88.3816 81.2313C90.7471 83.5105 91.9262 86.9365 91.919 91.5092ZM81.8137 83.55C80.9605 83.5422 80.1387 83.8716 79.5273 84.4667C78.1612 85.8041 77.4746 88.1408 77.4674 91.4769C77.4602 94.813 78.1468 97.1605 79.5273 98.5194C80.1432 99.1074 80.9621 99.4356 81.8137 99.4356C82.6653 99.4356 83.4841 99.1074 84.1 98.5194C85.4805 97.1748 86.1707 94.8274 86.1707 91.4769C86.1707 88.1264 85.4877 85.7897 84.1216 84.4667C83.8184 84.1665 83.4577 83.9306 83.0611 83.773C82.6645 83.6155 82.2403 83.5397 81.8137 83.55Z" fill="#150E70"></path> <path d="M114.168 91.5092C114.168 96.0029 112.985 99.4145 110.62 101.744C108.824 103.376 106.484 104.28 104.057 104.28C101.631 104.28 99.291 103.376 97.4948 101.744C95.1293 99.4217 93.9502 96.0101 93.9574 91.5092C93.9646 87.0084 95.1437 83.5824 97.4948 81.2313C99.2944 79.6064 101.633 78.707 104.057 78.707C106.482 78.707 108.82 79.6064 110.62 81.2313C112.985 83.5105 114.168 86.9365 114.168 91.5092ZM104.063 83.55C103.64 83.5426 103.22 83.6198 102.827 83.7773C102.434 83.9347 102.077 84.1691 101.776 84.4667C100.396 85.8041 99.7057 88.1408 99.7057 91.4769C99.7057 94.813 100.396 97.1605 101.776 98.5194C102.392 99.1074 103.211 99.4356 104.063 99.4356C104.914 99.4356 105.733 99.1074 106.349 98.5194C107.715 97.1749 108.402 94.8274 108.409 91.4769C108.416 88.1264 107.73 85.7897 106.349 84.4667C105.738 83.8716 104.916 83.5422 104.063 83.55Z" fill="#150E70"></path> <path d="M12.6722 78.3086L12.8771 76.4428C12.9105 75.4718 13.2252 74.5314 13.783 73.7359C14.092 73.3615 14.4932 73.0741 14.9471 72.902C15.4009 72.7299 15.8918 72.679 16.3714 72.7544C17.0579 72.8038 17.704 73.0974 18.1927 73.5822C18.6814 74.0669 18.9803 74.7106 19.0352 75.3967L23.8453 72.6035L23.6403 74.5447L19.046 77.0899V77.3703L23.3599 77.8341L23.1874 79.441L12.6722 78.3086ZM14.3115 76.8634L17.6332 77.2193V76.7232V76.3134C17.6322 76.1217 17.6141 75.9304 17.5793 75.7418C17.5538 75.5163 17.488 75.2971 17.3851 75.0947C17.2812 74.889 17.125 74.7142 16.9322 74.5879C16.6954 74.4241 16.4207 74.3239 16.1341 74.2967C15.0556 74.1888 14.4409 74.8575 14.2899 76.3134L14.3115 76.8634Z" fill="#150E70"></path> <path d="M15.336 63.1883L16.8028 63.5442L15.7998 67.6316L18.3881 68.2679L19.3588 64.2991L20.8255 64.655L19.8549 68.6238L23.0903 69.4111L24.0933 65.3237L25.56 65.6796L24.158 71.3416L13.9556 68.8395L15.336 63.1883Z" fill="#150E70"></path> <path d="M24.4276 57.4076L23.0687 56.8252L24.8051 52.8456C25.5414 53.1069 26.2157 53.5177 26.7855 54.0523C27.3553 54.5868 27.8083 55.2335 28.116 55.9517C28.3432 56.5693 28.4449 57.2259 28.4153 57.8833C28.3857 58.5407 28.2253 59.1856 27.9435 59.7803C27.712 60.4046 27.3526 60.9737 26.8883 61.4511C26.424 61.9284 25.865 62.3034 25.2473 62.552C24.5668 62.8217 23.8392 62.9522 23.1074 62.9355C22.3757 62.9188 21.6547 62.7554 20.9873 62.4549C20.2872 62.1573 19.6504 61.7291 19.1107 61.1931C18.6447 60.7082 18.2783 60.1366 18.0322 59.5106C17.7708 58.8559 17.6425 58.1556 17.6547 57.4507C17.6712 56.5904 17.8723 55.7436 18.2444 54.9677C18.6165 54.1918 19.151 53.5049 19.8117 52.9535C20.4407 52.4609 21.1816 52.1311 21.9687 51.9936L22.303 53.5251C21.7203 53.6495 21.1719 53.8998 20.6961 54.2584C20.1363 54.6373 19.6921 55.1636 19.4127 55.7791C19.2106 56.2512 19.1065 56.7593 19.1065 57.2728C19.1065 57.7863 19.2106 58.2944 19.4127 58.7665C19.6152 59.2479 19.9164 59.6815 20.297 60.0391C20.6977 60.4283 21.1702 60.736 21.6883 60.945C22.6477 61.3825 23.7416 61.4213 24.7296 61.0529C25.1874 60.8744 25.6026 60.6017 25.9481 60.2524C26.2937 59.9031 26.562 59.485 26.7356 59.0253C26.9164 58.629 27.0154 58.2002 27.0265 57.7647C27.0376 57.3292 26.9607 56.8959 26.8003 56.4909C26.54 55.8516 26.0626 55.3246 25.4522 55.0026L24.4276 57.4076Z" fill="#150E70"></path> <path d="M21.753 48.2189L22.5619 46.8277L31.6319 52.123L30.8122 53.5251L21.753 48.2189Z" fill="#150E70"></path> <path d="M29.0435 40.1303L28.8925 41.6294C28.6226 41.5701 28.3429 41.5701 28.0729 41.6294C27.68 41.7479 27.3382 41.9947 27.1023 42.3304C26.8527 42.6326 26.7257 43.0175 26.7464 43.4089C26.7646 43.5763 26.8183 43.7379 26.9038 43.8829C26.9894 44.028 27.1048 44.1531 27.2425 44.2501C27.5092 44.4019 27.8167 44.4669 28.122 44.4359C28.4274 44.405 28.7155 44.2798 28.9465 44.0776L29.9171 43.4628C31.427 42.5246 32.7535 42.4491 33.8751 43.2687C34.2439 43.5133 34.5586 43.8308 34.7997 44.2019C35.0409 44.5729 35.2034 44.9894 35.2772 45.4257C35.3388 45.8721 35.3105 46.3263 35.1938 46.7616C35.0771 47.1969 34.8744 47.6044 34.5977 47.9601C34.3377 48.3486 33.995 48.6748 33.5941 48.9153C33.1932 49.1558 32.7441 49.3047 32.279 49.3513C31.5265 49.4265 30.7698 49.2563 30.122 48.866L30.7691 47.4532C31.1542 47.7423 31.625 47.8941 32.1064 47.8846C32.3724 47.8711 32.6313 47.7946 32.8619 47.6615C33.0925 47.5283 33.2882 47.3424 33.433 47.1189C33.5789 46.9363 33.6849 46.7251 33.7442 46.499C33.8035 46.2729 33.8147 46.0369 33.7771 45.8062C33.7395 45.5755 33.6539 45.3552 33.5259 45.1597C33.3979 44.9641 33.2303 44.7975 33.0339 44.6707C32.8738 44.5409 32.6889 44.4452 32.4904 44.3896C32.2919 44.3339 32.0842 44.3195 31.8799 44.3472C31.4575 44.4387 31.0554 44.6068 30.6936 44.8433L29.7445 45.4149C29.2678 45.8041 28.6797 46.0317 28.0651 46.0646C27.4505 46.0976 26.8414 45.9343 26.3258 45.5982C26.0332 45.3821 25.7869 45.1094 25.6017 44.7963C25.4164 44.4832 25.2959 44.1361 25.2473 43.7756C25.1954 43.3679 25.2249 42.954 25.3341 42.5578C25.4434 42.1617 25.6301 41.7911 25.8836 41.4676C26.3135 40.8314 26.9558 40.3689 27.6954 40.1627C28.1396 40.0749 28.5956 40.0639 29.0435 40.1303Z" fill="#150E70"></path> <path d="M34.4252 34.0153L32.7859 35.8056L39.4077 41.8883L38.3293 43.0746L31.6966 36.992L30.0573 38.8254L28.9788 37.7469L33.3575 32.9908L34.4252 34.0153Z" fill="#150E70"></path> <path d="M39.4725 27.5552L40.4539 28.6984L37.2184 31.4486L38.9979 33.433L42.0608 30.8015L43.0422 31.9447L39.947 34.6085L42.104 37.1214L45.3394 34.3712L46.3747 35.5144L41.953 39.3215L35.0507 31.3515L39.4725 27.5552Z" fill="#150E70"></path> <path d="M42.0608 25.6463L43.6354 24.5678C44.4078 23.9832 45.3331 23.6349 46.2992 23.5649C46.7858 23.5646 47.264 23.6919 47.686 23.9341C48.108 24.1764 48.4591 24.525 48.7043 24.9453C49.1016 25.5379 49.2702 26.2545 49.1788 26.9621C49.1014 27.6391 48.7974 28.27 48.316 28.7524L53.5251 30.7044L51.8966 31.7829L47.011 29.8416L46.7738 29.9926L49.1249 33.5947L47.7768 34.4791L42.0608 25.6463ZM44.2178 26.0022L46.0512 28.7955L46.4718 28.5151L46.8061 28.2778C46.9539 28.1567 47.091 28.0232 47.216 27.8788C47.3668 27.714 47.4939 27.5288 47.5934 27.3288C47.6829 27.1142 47.7163 26.8804 47.6905 26.6493C47.6727 26.3625 47.5756 26.0862 47.4101 25.8512C46.8169 24.9453 45.911 24.8914 44.6815 25.7002L44.2178 26.0022Z" fill="#150E70"></path> <path d="M55.3908 18.1293L56.0379 19.4882L52.2417 21.3108L53.3957 23.7266L57.0733 21.9687L57.7312 23.3276L54.0535 25.0963L55.4771 28.0405L59.3165 26.2287L59.9744 27.5984L54.6791 30.1112L50.1386 20.6422L55.3908 18.1293Z" fill="#150E70"></path> <path d="M58.4537 16.8675L60.6107 16.2096C61.3103 15.9799 62.0341 15.8315 62.7677 15.7674C63.4117 15.7143 64.0595 15.8026 64.6658 16.0262C65.419 16.291 66.0963 16.7352 66.6394 17.3204C67.2008 17.94 67.6171 18.6768 67.8581 19.4774C68.1416 20.2579 68.22 21.0981 68.0859 21.9176C67.9519 22.7371 67.6098 23.5085 67.0924 24.158C66.6991 24.6721 66.2124 25.1074 65.658 25.4414C65.0355 25.7851 64.3773 26.06 63.6952 26.261L61.6137 26.9081L58.4537 16.8675ZM60.4489 17.8273L62.6598 24.9776L63.3285 24.7727C64.2908 24.5322 65.1519 23.9922 65.7874 23.2305C66.1236 22.7705 66.3434 22.2359 66.4279 21.6725C66.5125 21.109 66.4592 20.5334 66.2727 19.9951C66.11 19.3738 65.795 18.803 65.356 18.3342C64.9889 17.935 64.5298 17.6314 64.0187 17.4498C63.0569 17.1942 62.0396 17.2432 61.1068 17.59L60.4489 17.8273Z" fill="#150E70"></path> <path d="M76.7771 23.3923L76.3781 18.8734L72.3877 13.2438L74.2211 13.082L77.0252 17.0508L79.0743 12.6398L80.9077 12.478L77.985 18.7332L78.3841 23.2521L76.7771 23.3923Z" fill="#150E70"></path> <path d="M83.9814 13.8477C84.8018 13.1237 85.8194 12.6609 86.9043 12.5183C87.9891 12.3757 89.0918 12.56 90.0714 13.0474C91.0509 13.5349 91.8629 14.3035 92.4033 15.2548C92.9438 16.2062 93.1882 17.2971 93.1054 18.3881C93.0716 19.1082 92.8905 19.8138 92.5733 20.4612C92.2561 21.1085 91.8095 21.684 91.2612 22.152C90.1286 23.0732 88.6864 23.5262 87.2305 23.4179C85.7745 23.3096 84.4152 22.6483 83.4314 21.5697C82.9536 21.0288 82.5922 20.3954 82.3695 19.709C82.1469 19.0225 82.0678 18.2976 82.1372 17.5793C82.1735 16.8643 82.3558 16.1644 82.673 15.5226C82.9902 14.8808 83.4355 14.3108 83.9814 13.8477ZM84.6393 20.6529C85.341 21.4174 86.3092 21.8838 87.3444 21.956C88.3796 22.0282 89.4031 21.7008 90.2043 21.0412C90.5959 20.6912 90.9119 20.2647 91.1326 19.7881C91.3533 19.3114 91.4741 18.7946 91.4877 18.2695C91.544 17.7471 91.4937 17.2187 91.3398 16.7164C91.1859 16.214 90.9317 15.7481 90.5925 15.3468C90.2605 14.9499 89.8491 14.6268 89.3847 14.3984C88.9204 14.1699 88.4134 14.0411 87.8963 14.0203C87.3825 13.9682 86.8635 14.0228 86.3717 14.1805C85.8799 14.3382 85.426 14.5958 85.0383 14.937C84.6466 15.287 84.3307 15.7135 84.11 16.1901C83.8893 16.6668 83.7685 17.1836 83.7549 17.7087C83.6941 18.2338 83.7412 18.7658 83.8933 19.2721C84.0454 19.7783 84.2992 20.2482 84.6393 20.6529Z" fill="#150E70"></path> <path d="M100.612 21.5696L101 20.1461L105.195 21.2892V21.3647C105.036 22.1283 104.72 22.8504 104.267 23.4854C103.814 24.1203 103.234 24.6542 102.564 25.0531C101.982 25.361 101.345 25.5501 100.689 25.6094C100.034 25.6686 99.3733 25.5968 98.7458 25.3983C98.0982 25.2487 97.4892 24.9651 96.9579 24.5658C96.4266 24.1664 95.985 23.6601 95.6614 23.0795C95.3015 22.4392 95.074 21.7331 94.9925 21.0031C94.911 20.2731 94.9771 19.5342 95.1869 18.8303C95.3803 18.0988 95.7176 17.4132 96.1791 16.8135C96.5893 16.2628 97.1065 15.8006 97.6997 15.4547C98.3119 15.11 98.9864 14.89 99.6841 14.8076C100.443 14.7153 101.213 14.774 101.949 14.9801C102.88 15.2091 103.735 15.6776 104.429 16.339C105.01 16.8881 105.444 17.5741 105.691 18.3342L104.214 18.8627C104.015 18.2999 103.695 17.7879 103.275 17.3636C102.811 16.9056 102.228 16.5846 101.593 16.4361C100.853 16.1939 100.054 16.1952 99.315 16.4397C98.5756 16.6843 97.9339 17.1592 97.484 17.795C97.152 18.2454 96.9069 18.7538 96.7614 19.294C96.4675 20.2946 96.5759 21.3704 97.0634 22.2922C97.2971 22.7217 97.6202 23.096 98.0109 23.39C98.4016 23.6839 98.8508 23.8907 99.3282 23.9962C99.7406 24.1192 100.173 24.1587 100.601 24.1124C101.029 24.0661 101.443 23.9349 101.82 23.7266C102.423 23.4021 102.893 22.875 103.146 22.2383L100.612 21.5696Z" fill="#150E70"></path> <path d="M111.666 30.2622L111.752 27.5013L107.676 25.5708L105.519 27.3611L103.944 26.6169L113.446 18.8195L113.241 31.0064L111.666 30.2622ZM108.927 24.4816L111.817 25.8836L111.925 22.001L108.927 24.4816Z" fill="#150E70"></path> <path d="M127.11 30.0465L125.622 29.8632C125.681 29.5968 125.681 29.3206 125.622 29.0543C125.521 28.6532 125.28 28.3013 124.942 28.0621C124.647 27.7988 124.259 27.6631 123.864 27.6846C123.696 27.6975 123.533 27.7465 123.386 27.8284C123.239 27.9104 123.111 28.0232 123.012 28.1592C122.677 28.5906 122.72 29.1622 123.141 29.8632L123.723 30.8446C124.637 32.3832 124.673 33.7026 123.831 34.8026C123.574 35.1719 123.243 35.4835 122.858 35.7175C122.474 35.9515 122.045 36.1027 121.599 36.1615C121.152 36.2121 120.7 36.1733 120.269 36.0474C119.837 35.9215 119.435 35.711 119.086 35.4281C118.707 35.1559 118.391 34.8049 118.16 34.399C117.929 33.9932 117.789 33.5422 117.749 33.077C117.687 32.3184 117.877 31.5605 118.288 30.9201L119.765 31.6211C119.471 32.0005 119.312 32.4674 119.312 32.9476C119.316 33.2112 119.382 33.4701 119.506 33.7028C119.63 33.9355 119.807 34.1351 120.024 34.2849C120.203 34.4293 120.408 34.5362 120.629 34.5992C120.849 34.6622 121.08 34.68 121.308 34.6516C121.541 34.6223 121.766 34.5436 121.967 34.4209C122.167 34.2982 122.34 34.1342 122.472 33.9398C122.607 33.7841 122.707 33.6019 122.767 33.4049C122.826 33.208 122.843 33.0007 122.818 32.7966C122.735 32.3698 122.578 31.9609 122.354 31.5887L121.868 30.6289C121.492 30.1428 121.28 29.5498 121.263 28.9353C121.245 28.3209 121.423 27.7167 121.771 27.2101C121.986 26.9109 122.261 26.6602 122.579 26.4744C122.896 26.2886 123.25 26.1718 123.616 26.1316C124.026 26.0915 124.44 26.1348 124.833 26.259C125.226 26.3832 125.589 26.5856 125.902 26.8542C126.528 27.2996 126.976 27.9533 127.164 28.6984C127.235 29.1469 127.217 29.6051 127.11 30.0465Z" fill="#150E70"></path> <path d="M135.803 37.0674L134.454 38.394C134.428 37.345 134.008 36.3442 133.279 35.5899C132.934 35.1916 132.506 34.8734 132.026 34.6573C131.545 34.4413 131.023 34.3326 130.496 34.3389C129.433 34.3676 128.424 34.8176 127.692 35.5899C127.314 35.9439 127.01 36.3691 126.797 36.8411C126.585 37.3131 126.467 37.8225 126.452 38.3401C126.439 38.8545 126.535 39.366 126.732 39.8415C126.928 40.317 127.223 40.746 127.595 41.101C127.97 41.4771 128.416 41.7755 128.906 41.9791C129.396 42.1827 129.922 42.2874 130.453 42.2873L129.094 43.6246C128.108 43.3649 127.213 42.8388 126.506 42.104C126.003 41.5982 125.606 40.9977 125.336 40.3373C125.067 39.6769 124.932 38.9696 124.938 38.2565C124.944 37.5433 125.091 36.8384 125.371 36.1826C125.652 35.5268 126.059 34.9331 126.571 34.436C127.068 33.8988 127.672 33.4719 128.345 33.183C129.017 32.8941 129.743 32.7496 130.475 32.7587C131.207 32.7679 131.929 32.9305 132.594 33.2361C133.259 33.5418 133.852 33.9836 134.336 34.533C135.062 35.2159 135.572 36.0972 135.803 37.0674Z" fill="#150E70"></path> <path d="M139.243 40.5509L135.889 42.9452L138.499 46.6444L141.853 44.2178L142.78 45.5335L134.206 51.5946L133.279 50.2789L137.226 47.4856L134.616 43.7864L130.669 46.5797L129.731 45.2963L138.358 39.2352L139.243 40.5509Z" fill="#150E70"></path> <path d="M144.107 50.5808C145.453 51.1365 146.536 52.184 147.137 53.5103C147.738 54.8366 147.812 56.342 147.342 57.7204C146.808 59.0657 145.776 60.1531 144.46 60.7558C143.144 61.3586 141.646 61.4302 140.278 60.9558C138.923 60.4124 137.828 59.3711 137.216 58.0455C136.604 56.72 136.523 55.2106 136.989 53.8271C137.521 52.48 138.553 51.3909 139.87 50.7878C141.187 50.1847 142.686 50.1144 144.053 50.5916L144.107 50.5808ZM138.456 54.4418C138.123 55.4242 138.18 56.4969 138.615 57.4383C139.051 58.3797 139.832 59.1177 140.796 59.4999C141.797 59.8058 142.876 59.7371 143.83 59.3064C144.785 58.8758 145.55 58.1128 145.983 57.1596C146.312 56.1768 146.254 55.1058 145.821 54.1643C145.389 53.2227 144.614 52.4813 143.654 52.0907C142.644 51.7855 141.558 51.8605 140.601 52.3017C139.643 52.7428 138.88 53.5195 138.456 54.4849V54.4418Z" fill="#150E70"></path> <path d="M149.359 63.4363C150.574 64.2444 151.435 65.4856 151.765 66.9066C152.096 68.3277 151.872 69.8214 151.139 71.0828C150.348 72.291 149.123 73.1487 147.718 73.478C146.312 73.8073 144.834 73.583 143.589 72.8515C142.37 72.0469 141.506 70.8063 141.173 69.3844C140.84 67.9625 141.064 66.4671 141.799 65.205C142.587 63.9947 143.812 63.1353 145.219 62.8058C146.625 62.4763 148.104 62.7022 149.348 63.4363H149.359ZM143.05 66.0786C142.535 66.9693 142.379 68.0228 142.613 69.0247C142.847 70.0265 143.455 70.9013 144.312 71.471C145.237 71.9836 146.319 72.1382 147.351 71.9056C148.383 71.673 149.293 71.0692 149.909 70.2092C150.424 69.3185 150.58 68.265 150.346 67.2631C150.111 66.2613 149.504 65.3865 148.647 64.8168C147.721 64.3167 146.645 64.1722 145.62 64.4106C144.595 64.6489 143.692 65.2537 143.082 66.111L143.05 66.0786Z" fill="#150E70"></path> <path d="M153.058 75.5477L153.188 77.1654L144.225 77.8664L144.463 80.9617L142.964 81.0803L142.586 76.3781L153.058 75.5477Z" fill="#150E70"></path> <path d="M57.2566 137.474C57.2056 137.376 57.1278 137.295 57.0324 137.24C56.9369 137.184 56.8277 137.157 56.7174 137.161C56.6069 137.156 56.4971 137.182 56.4014 137.238C56.3057 137.293 56.2281 137.375 56.1781 137.474L52.0691 146.027C52.028 146.111 52.022 146.208 52.0523 146.297C52.0826 146.386 52.1468 146.459 52.2309 146.501C52.3142 146.539 52.4088 146.543 52.4951 146.513C52.5815 146.483 52.6529 146.421 52.6946 146.339L54.0535 143.514H59.3812L60.7401 146.339C60.7797 146.42 60.8492 146.482 60.9338 146.512C61.0184 146.542 61.1114 146.538 61.1931 146.501C61.2357 146.481 61.2739 146.453 61.3057 146.419C61.3374 146.384 61.3621 146.344 61.3781 146.3C61.3941 146.256 61.4013 146.209 61.3991 146.162C61.397 146.115 61.3856 146.069 61.3656 146.027L57.2566 137.474ZM54.3663 142.867L56.7174 138.013L59.0577 142.867H54.3663Z" fill="#150E70"></path> <path d="M67.5777 145.8H63.9001V137.571C63.9001 137.526 63.8911 137.482 63.8736 137.441C63.8562 137.399 63.8306 137.362 63.7984 137.331C63.7662 137.3 63.728 137.275 63.6862 137.259C63.6444 137.243 63.5998 137.235 63.555 137.237C63.4634 137.237 63.3756 137.273 63.3109 137.338C63.2462 137.403 63.2098 137.49 63.2098 137.582V146.113C63.2098 146.204 63.2462 146.292 63.3109 146.357C63.3756 146.422 63.4634 146.458 63.555 146.458H67.5777C67.6229 146.461 67.6682 146.454 67.7107 146.439C67.7533 146.423 67.7921 146.399 67.8246 146.367C67.8571 146.336 67.8827 146.298 67.8996 146.256C67.9165 146.214 67.9244 146.169 67.9228 146.124C67.9246 146.079 67.9167 146.034 67.8997 145.993C67.8827 145.951 67.8569 145.914 67.8242 145.883C67.7915 145.852 67.7525 145.829 67.71 145.815C67.6674 145.8 67.6223 145.795 67.5777 145.8Z" fill="#150E70"></path> <path d="M74.4153 145.8H70.7053V137.571C70.7053 137.526 70.6963 137.482 70.6789 137.441C70.6614 137.399 70.6358 137.362 70.6036 137.331C70.5714 137.3 70.5333 137.275 70.4914 137.259C70.4496 137.243 70.405 137.235 70.3602 137.237C70.2687 137.237 70.1809 137.273 70.1162 137.338C70.0514 137.403 70.0151 137.49 70.0151 137.582V146.113C70.0151 146.204 70.0514 146.292 70.1162 146.357C70.1809 146.422 70.2687 146.458 70.3602 146.458H74.4153C74.4635 146.467 74.513 146.465 74.5603 146.452C74.6077 146.44 74.6517 146.417 74.6893 146.386C74.7269 146.354 74.7571 146.315 74.7779 146.271C74.7987 146.226 74.8094 146.178 74.8094 146.129C74.8094 146.08 74.7987 146.032 74.7779 145.987C74.7571 145.943 74.7269 145.904 74.6893 145.872C74.6517 145.841 74.6077 145.818 74.5603 145.806C74.513 145.793 74.4635 145.791 74.4153 145.8Z" fill="#150E70"></path> <path d="M77.1654 137.237C77.1206 137.237 77.0762 137.246 77.0349 137.263C76.9937 137.281 76.9563 137.306 76.9251 137.339C76.8939 137.371 76.8695 137.409 76.8534 137.451C76.8372 137.493 76.8296 137.537 76.8311 137.582V146.21C76.8297 146.255 76.8372 146.3 76.8532 146.343C76.8692 146.385 76.8934 146.424 76.9245 146.457C76.9555 146.49 76.9928 146.517 77.0341 146.535C77.0755 146.554 77.1201 146.564 77.1654 146.566C77.2598 146.566 77.3503 146.528 77.4171 146.462C77.4838 146.395 77.5213 146.304 77.5213 146.21V137.582C77.5213 137.536 77.5121 137.49 77.4941 137.447C77.476 137.405 77.4497 137.366 77.4165 137.334C77.3833 137.302 77.3439 137.277 77.3008 137.26C77.2577 137.243 77.2116 137.235 77.1654 137.237Z" fill="#150E70"></path> <path d="M84.8442 137.474C84.7932 137.376 84.7154 137.295 84.6199 137.24C84.5245 137.184 84.4152 137.157 84.305 137.161C84.1944 137.156 84.0847 137.182 83.9889 137.238C83.8932 137.293 83.8157 137.375 83.7657 137.474L79.6567 146.027C79.6156 146.111 79.6096 146.208 79.6399 146.297C79.6702 146.386 79.7344 146.459 79.8185 146.501C79.9018 146.539 79.9964 146.543 80.0827 146.513C80.1691 146.483 80.2405 146.421 80.2822 146.339L81.6411 143.514H86.9688L88.3277 146.339C88.3673 146.42 88.4368 146.482 88.5214 146.512C88.6059 146.542 88.6989 146.538 88.7807 146.501C88.8232 146.481 88.8615 146.453 88.8933 146.419C88.925 146.384 88.9496 146.344 88.9657 146.3C88.9817 146.256 88.9889 146.209 88.9867 146.162C88.9846 146.115 88.9732 146.069 88.9532 146.027L84.8442 137.474ZM81.9539 142.867L84.305 138.013L86.6453 142.867H81.9539Z" fill="#150E70"></path> <path d="M99.5979 137.237C99.5063 137.237 99.4185 137.273 99.3538 137.338C99.2891 137.403 99.2527 137.49 99.2527 137.582V145.347L91.1965 137.409C91.1582 137.354 91.1065 137.309 91.0462 137.279C90.9858 137.248 90.9188 137.234 90.8514 137.237C90.7598 137.237 90.672 137.273 90.6073 137.338C90.5426 137.403 90.5062 137.49 90.5062 137.582V146.21C90.5062 146.301 90.5426 146.389 90.6073 146.454C90.672 146.519 90.7598 146.555 90.8514 146.555C90.9429 146.555 91.0307 146.519 91.0954 146.454C91.1601 146.389 91.1965 146.301 91.1965 146.21V138.445L99.2204 146.35C99.2581 146.407 99.3094 146.453 99.3697 146.486C99.43 146.518 99.4973 146.534 99.5655 146.533C99.6117 146.533 99.6575 146.524 99.7001 146.506C99.7427 146.488 99.7812 146.462 99.8134 146.429C99.8456 146.395 99.8708 146.356 99.8875 146.313C99.9042 146.27 99.9121 146.224 99.9106 146.177V137.55C99.9034 137.469 99.8681 137.394 99.8109 137.337C99.7538 137.279 99.6784 137.244 99.5979 137.237Z" fill="#150E70"></path> <path d="M106.328 137.852C107.396 137.854 108.42 138.281 109.175 139.038C109.207 139.071 109.245 139.098 109.288 139.116C109.331 139.134 109.377 139.143 109.423 139.143C109.469 139.143 109.515 139.134 109.558 139.116C109.6 139.098 109.639 139.071 109.671 139.038C109.704 139.007 109.73 138.969 109.748 138.927C109.766 138.886 109.775 138.841 109.775 138.795C109.775 138.75 109.766 138.705 109.748 138.663C109.73 138.622 109.704 138.584 109.671 138.553C109.012 137.894 108.172 137.445 107.258 137.263C106.344 137.081 105.396 137.174 104.535 137.531C103.674 137.888 102.937 138.492 102.42 139.267C101.902 140.042 101.625 140.953 101.625 141.885C101.625 142.817 101.902 143.729 102.42 144.504C102.937 145.279 103.674 145.883 104.535 146.239C105.396 146.596 106.344 146.689 107.258 146.508C108.172 146.326 109.012 145.877 109.671 145.218C109.704 145.185 109.731 145.147 109.749 145.104C109.767 145.062 109.776 145.016 109.776 144.97C109.776 144.923 109.767 144.878 109.749 144.835C109.731 144.792 109.704 144.754 109.671 144.722C109.603 144.659 109.515 144.625 109.423 144.625C109.331 144.625 109.242 144.659 109.175 144.722C108.707 145.189 108.131 145.533 107.498 145.725C106.865 145.916 106.195 145.949 105.547 145.82C104.898 145.69 104.292 145.403 103.781 144.984C103.27 144.564 102.87 144.025 102.617 143.415C102.364 142.804 102.265 142.14 102.329 141.482C102.394 140.824 102.62 140.192 102.986 139.642C103.353 139.092 103.85 138.641 104.433 138.329C105.016 138.016 105.666 137.853 106.328 137.852Z" fill="#150E70"></path> <path d="M116.088 145.8H112.41V141.885H114.697C114.785 141.885 114.87 141.85 114.933 141.787C114.996 141.725 115.031 141.639 115.031 141.551C115.031 141.462 114.996 141.377 114.933 141.314C114.87 141.252 114.785 141.216 114.697 141.216H112.41V137.981H116.088C116.177 137.981 116.262 137.946 116.324 137.883C116.387 137.82 116.422 137.735 116.422 137.647C116.422 137.558 116.387 137.473 116.324 137.41C116.262 137.348 116.177 137.312 116.088 137.312H112.065C111.974 137.312 111.886 137.349 111.821 137.413C111.756 137.478 111.72 137.566 111.72 137.657V146.124C111.72 146.215 111.756 146.303 111.821 146.368C111.886 146.432 111.974 146.469 112.065 146.469H116.088C116.136 146.477 116.186 146.476 116.233 146.463C116.28 146.451 116.324 146.428 116.362 146.396C116.399 146.365 116.43 146.326 116.45 146.281C116.471 146.237 116.482 146.189 116.482 146.14C116.482 146.091 116.471 146.042 116.45 145.998C116.43 145.954 116.399 145.914 116.362 145.883C116.324 145.852 116.28 145.829 116.233 145.816C116.186 145.804 116.136 145.802 116.088 145.811V145.8Z" fill="#150E70"></path> <path d="M82.396 114.643C81.4901 113.057 79.743 112.96 78.1576 112.96C77.0351 112.891 75.9153 113.133 74.9222 113.661C72.7652 115.117 72.6358 120.003 72.6358 121.825C72.6358 124.726 73.1966 129.623 76.4536 129.828C76.8399 129.877 77.2289 129.902 77.6184 129.903C78.2007 129.903 78.8047 129.903 78.8694 129.903C83.0647 129.72 83.6255 125.05 83.6255 121.869C83.5824 117.555 83.0431 115.764 82.396 114.643ZM80.2391 126.635C79.991 127.531 79.3224 129.019 77.7586 129.019C76.1948 129.019 75.6016 127.175 75.3967 125.19C75.2781 124.047 75.2241 122.893 75.2026 121.825C75.1399 120.037 75.2374 118.247 75.4938 116.476C75.7849 115.398 75.9144 114.319 77.3703 113.963C77.5831 113.916 77.7996 113.887 78.0174 113.877C78.3088 113.836 78.6055 113.855 78.8893 113.933C79.1731 114.011 79.4379 114.146 79.6675 114.33C80.1902 114.793 80.5081 115.445 80.5518 116.142C80.8296 118.037 80.9414 119.954 80.8862 121.869C80.8795 123.477 80.673 125.078 80.2714 126.635H80.2391Z" fill="#150E70"></path> <path d="M70.1984 130.173V114.136C70.1984 113.575 70.2739 113.187 70.0906 113.057C69.9072 112.928 69.0121 113.392 69.0121 113.392C69.0121 113.392 68.4621 113.64 68.0199 113.877C67.5777 114.114 67.6209 114.298 67.6209 114.761C67.6209 117.565 67.6209 119.075 67.6209 120.596C67.6209 122.117 67.6209 122.904 67.6209 125.557C67.61 125.818 67.5775 126.078 67.5238 126.333C67.3355 126.891 67.009 127.392 66.5747 127.789C66.3231 128.139 66.0012 128.431 65.6298 128.649C65.2583 128.866 64.8454 129.003 64.4178 129.051C64.2922 129.062 64.1659 129.062 64.0403 129.051C63.4363 128.933 62.8432 128.199 62.6922 126.732C62.5888 125.805 62.56 124.871 62.6059 123.939C62.6059 123.346 62.6059 122.591 62.6922 120.909C62.6922 120.445 62.6922 119.701 62.7785 119.054C62.9834 115.818 63.1236 114.168 61.9912 113.413C61.4547 113.107 60.8386 112.968 60.2225 113.014C59.3984 113.046 58.5838 113.202 57.8067 113.478C57.6752 113.53 57.5624 113.62 57.4831 113.737C57.3106 114.06 57.6557 114.319 58.1086 114.287C58.3698 114.25 58.622 114.166 58.8528 114.039C58.997 113.952 59.1572 113.895 59.3239 113.87C59.4906 113.846 59.6605 113.856 59.8234 113.899C60.7078 114.265 60.4058 115.344 60.3735 116.8C60.3735 117.112 60.3735 117.447 60.3735 117.77C60.3735 117.77 59.9528 126.01 60.3735 127.477C60.5746 128.023 60.9071 128.511 61.3415 128.899C61.776 129.286 62.2991 129.561 62.8647 129.698C63.3407 129.857 63.8404 129.934 64.3423 129.925C64.9913 129.881 65.6231 129.697 66.1945 129.386C66.7659 129.075 67.2635 128.645 67.6532 128.124V128.339C67.6532 128.663 67.6532 129.493 67.6532 129.493C67.6532 129.838 67.6532 130.173 67.6532 130.507C67.7179 131.801 67.7611 132.955 67.0708 133.57C66.7724 133.833 66.4069 134.009 66.0148 134.078C65.6227 134.146 65.2192 134.105 64.8492 133.958C64.0187 133.624 64.0942 132.794 63.4363 132.664C63.3021 132.634 63.1615 132.656 63.0432 132.727C62.925 132.797 62.838 132.909 62.8 133.042C62.7138 133.57 63.5442 134.454 64.7305 134.67C65.1665 134.73 65.6062 134.759 66.0463 134.756C67.5346 134.756 69.1631 134.541 69.7778 133.678C70.3925 132.815 70.1984 131.952 70.1984 130.173Z" fill="#150E70"></path> <path d="M95.9849 122.451C95.9849 121.944 96.0604 121.793 95.7369 121.696C95.629 121.696 94.0329 122.127 93.9898 122.138C93.2348 122.332 93.3211 122.397 93.4289 124.069C93.5215 124.904 93.5215 125.746 93.4289 126.581C93.2408 127.201 92.8602 127.743 92.3423 128.131C91.8245 128.519 91.1964 128.732 90.5494 128.738C89.4062 128.663 88.5218 127.078 88.3924 125.33C88.1659 123.249 88.137 121.151 88.3061 119.064C88.4463 115.667 88.7915 113.899 90.9376 113.78C92.4044 113.704 93.375 114.222 93.6231 115.732C93.6231 115.969 93.6231 116.81 93.6231 117.112C93.6231 117.716 93.6231 118.277 93.9143 118.471C94.2054 118.665 95.6075 118.04 95.8447 117.857C96.2546 117.533 96.1683 116.778 96.0173 115.926C96.0173 115.807 96.0173 115.71 95.9634 115.624C95.6614 113.586 93.8927 112.863 91.0455 112.863C90.4236 112.846 89.8025 112.919 89.2013 113.079C85.8256 113.92 85.6531 117.533 85.6531 121.167C85.6531 124.802 85.9658 128.512 88.2306 129.461C88.7962 129.731 89.416 129.867 90.0425 129.86C90.7453 129.884 91.4457 129.766 92.1024 129.515C92.6174 129.324 93.1037 129.062 93.5476 128.738C93.5476 129.105 93.5476 130.227 93.5476 130.41C93.5476 131.823 93.6446 132.858 92.9652 133.473C92.6657 133.735 92.2996 133.908 91.9076 133.975C91.5155 134.042 91.1126 133.998 90.7435 133.85C89.9131 133.527 89.9886 132.696 89.3199 132.567C89.1869 132.534 89.0464 132.556 88.9292 132.627C88.812 132.697 88.7275 132.812 88.6944 132.945C88.6081 133.473 89.4278 134.357 90.6249 134.573C91.0572 134.633 91.4933 134.662 91.9298 134.659C93.4182 134.659 94.9927 134.444 95.5967 133.581C96.2006 132.718 96.0389 131.909 96.0389 130.14C96.0497 130.184 95.9849 122.559 95.9849 122.451Z" fill="#150E70"></path> <path d="M110.523 128.523C110.312 128.536 110.108 128.603 109.93 128.717C109.628 128.911 109.304 129.202 108.765 128.879C108.226 128.555 108.204 127.024 108.236 125.924C108.236 125.6 108.377 116.487 108.236 115.268C108.064 113.845 106.651 112.949 104.699 112.949C103.975 112.953 103.253 113.026 102.542 113.165C101.865 113.281 101.233 113.586 100.72 114.043C100.207 114.501 99.8333 115.094 99.641 115.754V115.937C99.4145 117.015 99.1988 118.245 99.641 118.504C100.083 118.762 101.377 118.094 101.625 117.91C101.873 117.727 102.003 116.983 101.949 116.368C101.949 116.109 101.949 115.872 101.949 115.71C101.949 113.866 104.483 113.812 105.184 114.157C105.885 114.502 105.918 115.721 105.939 117.501C106.029 118.334 105.955 119.176 105.724 119.981C105.573 120.326 104.893 120.51 104.44 120.607C102.132 121.135 98.6164 121.469 98.0987 124.327C97.8183 125.88 97.8183 128.113 99.1772 129.213C99.6222 129.589 100.18 129.806 100.763 129.828C101.636 129.877 102.511 129.735 103.324 129.413C104.138 129.091 104.872 128.596 105.476 127.962C105.648 127.735 105.799 127.52 105.972 127.315V127.552C105.972 128.447 105.972 129.256 106.899 129.709C107.276 129.875 107.685 129.956 108.096 129.946C108.804 129.95 109.509 129.852 110.189 129.655C110.706 129.483 111.127 129.288 111.062 128.857C111.052 128.798 111.03 128.741 110.997 128.691C110.963 128.641 110.92 128.599 110.869 128.567C110.817 128.535 110.76 128.515 110.701 128.507C110.641 128.5 110.58 128.505 110.523 128.523ZM105.691 125.654C105.583 126.474 104.322 128.598 102.779 128.598C100.741 128.598 100.622 125.87 100.989 124.047C101.291 122.483 102.348 122.117 104.225 121.674C104.753 121.545 105.303 121.416 105.853 121.254V121.383C105.929 122.809 105.875 124.238 105.691 125.654Z" fill="#150E70"></path> </svg> 