<?xml version="1.0" encoding="UTF-8"?> <svg xmlns="http://www.w3.org/2000/svg" id="Layer_1" data-name="Layer 1" viewBox="0 0 51 51"><defs><style> .cls-1 { fill: #262f68; stroke-width: 0px; } .cls-2 { stroke-miterlimit: 10; } .cls-2, .cls-3 { fill: none; stroke: #262f68; } .cls-3 { stroke-linecap: round; stroke-linejoin: round; } </style></defs><g><g><g><path class="cls-3" d="m33.94,29.49l3.62,9.94-4.53-1.31-2.69,3.94-3.22-8.86"></path><path class="cls-3" d="m23.88,33.2l-3.22,8.86-2.69-3.94-4.52,1.31,3.62-9.94"></path></g><path class="cls-2" d="m25.5,28.74c-4.32,0-7.83-3.51-7.83-7.83s3.51-7.83,7.83-7.83,7.83,3.51,7.83,7.83-3.51,7.83-7.83,7.83Z"></path></g><path class="cls-2" d="m37.37,22.2c.31-.37.65-.79.65-1.3s-.34-.93-.65-1.3c-.2-.25-.42-.51-.45-.71-.05-.22.07-.55.19-.86.16-.44.33-.94.17-1.41-.18-.48-.64-.75-1.06-.99-.28-.17-.57-.34-.68-.53-.11-.19-.11-.53-.12-.86,0-.47,0-1.01-.32-1.39-.32-.38-.85-.48-1.31-.56-.32-.06-.67-.13-.83-.27-.17-.14-.28-.45-.4-.76-.17-.45-.35-.95-.79-1.2-.43-.25-.95-.16-1.43-.08-.32.06-.67.11-.87.04-.2-.07-.42-.33-.63-.58-.31-.36-.67-.78-1.16-.86-.48-.08-.93.17-1.36.41-.29.17-.59.34-.81.34s-.53-.18-.82-.34c-.43-.24-.87-.49-1.35-.41-.5.08-.85.5-1.16.86-.21.25-.44.51-.64.58-.2.07-.55.02-.87-.04-.46-.07-.99-.17-1.43.08-.43.25-.62.75-.79,1.2-.11.31-.23.62-.4.76-.17.14-.5.2-.82.27-.46.08-1,.19-1.31.56-.32.38-.32.92-.33,1.39,0,.33,0,.68-.11.86-.11.19-.41.36-.69.53-.42.24-.88.52-1.05.98-.18.47,0,.97.17,1.42.11.31.22.64.19.86-.04.2-.25.46-.45.71-.31.37-.66.79-.66,1.3s.35.93.66,1.3c.2.25.42.51.45.72.04.21-.07.54-.19.85-.16.44-.34.95-.17,1.42.17.47.63.75,1.05.99.28.17.57.33.69.52.1.19.11.54.11.86,0,.47,0,1.02.33,1.4.28.33.73.44,1.16.53.06.02.1.03.16.04.32.06.66.12.82.26.17.14.29.45.4.77.17.44.36.95.79,1.2.44.24.96.16,1.43.07.32-.05.67-.11.87-.03.2.06.43.32.64.57.31.36.66.78,1.16.86.19.04.38.02.56-.04.28-.07.55-.23.8-.37.3-.17.59-.33.82-.33s.53.17.81.33c.26.15.52.3.8.37h0c.12.04.24.06.36.06.06,0,.13,0,.19-.02.49-.08.84-.5,1.16-.86.21-.25.43-.51.63-.57.2-.07.55-.02.87.03.47.08,1,.17,1.43-.07.44-.25.62-.76.79-1.2.12-.31.23-.63.4-.77.17-.14.5-.2.83-.26.06,0,.1-.02.16-.04.42-.08.87-.19,1.16-.53.31-.38.32-.92.32-1.4,0-.32,0-.67.12-.86.1-.19.4-.35.68-.52.42-.24.88-.52,1.06-.99.17-.46,0-.97-.17-1.42-.11-.31-.23-.64-.19-.85.04-.21.25-.47.45-.72Z"></path><polygon class="cls-1" points="25.5 15.81 27.02 18.89 30.42 19.38 27.96 21.78 28.54 25.17 25.5 23.57 22.46 25.17 23.04 21.78 20.58 19.38 23.98 18.89 25.5 15.81"></polygon></g><circle class="cls-2" cx="25.5" cy="25.5" r="25"></circle></svg> 