<?xml version="1.0" encoding="UTF-8"?> <svg xmlns="http://www.w3.org/2000/svg" width="152" height="188" viewBox="0 0 152 188" fill="none"> <path fill-rule="evenodd" clip-rule="evenodd" d="M77.5965 26.3393C75.4638 26.7861 74.7622 27.2356 73.9987 28.6436C73.4823 29.596 73.4296 29.9507 73.5494 31.6663C73.7238 34.164 74.7298 37.8789 75.985 40.6621C77.4358 43.8787 81.0004 50.0276 82.6264 52.1184C83.4044 53.1186 83.9941 53.9824 83.9372 54.0375C83.8802 54.0927 77.4594 54.4119 69.6689 54.7465C16.2358 57.0425 6.30866 57.5885 3.03577 58.4104C0.66138 59.0066 0.416607 59.6636 1.68062 62.0493C2.6336 63.8477 3.5828 64.5176 5.48548 64.7338C7.12305 64.9202 7.04724 64.737 6.68373 67.6314C6.54967 68.6971 6.15477 72.5208 5.80582 76.1289C5.45711 79.7369 4.92991 84.9356 4.63468 87.6818L4.09745 92.6747L4.62992 93.7559C5.82138 96.1766 6.9064 97.7831 7.70925 98.3157C8.17594 98.6255 8.64841 99.0356 8.75912 99.2268C9.28205 100.131 11.0831 99.0613 11.6665 97.4998C11.8548 96.9956 12.331 96.0913 12.7249 95.4902C13.1188 94.8891 13.6244 93.7875 13.8483 93.0421C15.144 88.7288 18.8113 83.668 21.6832 82.2307L22.4918 81.8261V82.5344C22.4918 83.6787 21.7852 86.9554 20.9833 89.5298C20.0472 92.5346 20.0499 93.0958 21.0089 94.8636C21.4357 95.6508 21.9915 96.6776 22.2438 97.1453C22.8067 98.1884 24.7854 99.8179 25.4893 99.8179C26.2874 99.8179 26.9366 99.022 28.1248 96.5877C30.4081 91.9092 31.165 88.4702 31.1298 82.9319C31.1103 79.8406 31.0247 79.0697 30.5652 77.8527C29.8121 75.8577 28.9771 74.9016 27.2527 74.0593C25.5483 73.2266 24.0998 73.1392 20.9698 73.6795C18.4565 74.1135 17.3424 74.7017 15.6172 76.505C14.8272 77.3308 14.1285 77.9557 14.0645 77.894C14.0007 77.832 14.0652 75.6602 14.2083 73.0677C14.3512 70.4751 14.4943 67.6521 14.5261 66.7942L14.5839 65.2346L24.7513 65.1779C38.4162 65.1021 59.1456 64.8565 75.2994 64.579L88.5669 64.3511L89.0462 64.8947C91.402 67.5678 94.2765 71.8055 95.7692 74.8062C97.9897 79.2699 99.8994 85.432 99.7654 87.702L99.6885 89.006L96.5879 86.0904C92.962 82.6811 92.0023 81.5462 88.4926 76.5164C87.0562 74.4577 85.5147 72.3933 85.0669 71.9285C84.3263 71.1602 84.1586 71.0958 83.2121 71.2188C81.3689 71.4579 81.2906 71.7234 82.223 74.5695C83.3708 78.0743 87.9699 86.4597 90.7385 90.0964C93.7028 93.9899 97.9041 97.3302 100.639 97.9677C102.921 98.4998 105.096 96.4244 106.593 92.286C107.387 90.0884 107.548 86.3334 106.986 83.0808C106.154 78.2662 103.294 71.4523 99.8474 66.0742L98.5834 64.1021L102.525 64.1072C104.693 64.1101 114.95 63.9823 125.319 63.8232C139.559 63.6045 144.522 63.6021 145.61 63.8135C147.797 64.2386 148.501 63.8625 149.695 61.629C150.218 60.6508 150.616 59.6408 150.581 59.3845C150.545 59.1284 150.731 58.691 150.993 58.4126C151.525 57.8477 151.766 56.9176 151.948 54.72C152.064 53.3269 152.029 53.202 151.39 52.7156C151.015 52.4303 150.477 52.1968 150.194 52.1968C149.911 52.1968 149.424 51.9646 149.112 51.681C148.585 51.2019 148.431 51.1837 146.962 51.4266C144.313 51.8642 142.679 51.9585 133.565 52.1985C128.741 52.3256 117.228 52.7578 107.981 53.1587C98.7338 53.5599 91.0832 53.8057 90.9797 53.7056C90.3823 53.1274 87.1834 47.6196 85.4467 44.179C83.3761 40.0763 81.1957 35.148 81.375 34.9745C81.5658 34.7896 83.7218 36.6622 85.1741 38.274C87.1425 40.4587 89.0653 42.3371 89.8289 42.8213C90.811 43.444 91.6287 43.0018 92.3957 41.4328C92.7479 40.7126 93.0358 39.9784 93.0358 39.8013C93.0358 39.6244 93.2108 39.2925 93.4244 39.0639C93.6576 38.8143 93.8725 37.9618 93.9619 36.9326L94.1103 35.217L91.3764 32.5728C88.4364 29.7294 86.0821 28.0153 83.5109 26.8459C81.5751 25.9654 80.0171 25.832 77.5965 26.3393ZM121.846 67.387C119.991 67.8338 118.885 68.3899 116.952 69.847C115.006 71.3133 113.596 73.093 112.265 75.7644C111.253 77.7973 111.237 77.8714 111.237 80.5022C111.237 83.7781 111.61 85.0617 113.423 88.0074C116.493 92.9981 121.66 96.1734 126.712 96.1734C128.37 96.1734 132.566 95.3379 134.566 94.6097C139.207 92.9187 144.582 88.1578 145.966 84.5111C146.143 84.0434 146.463 83.3328 146.677 82.9319C146.89 82.531 147.125 81.5764 147.198 80.8103C147.345 79.267 147.057 78.68 146.152 78.68C145.851 78.68 145.478 78.5575 145.324 78.4079C145.116 78.2067 144.418 78.2067 142.658 78.4076C141.347 78.5573 140.1 78.7444 139.887 78.8236C139.674 78.9025 139.193 79.4767 138.818 80.0991C138.443 80.7216 137.461 81.9138 136.635 82.7484C134.465 84.9424 129.91 87.4267 128.058 87.4267C126.848 87.4267 123.65 86.8003 122.513 86.3404L121.536 85.9454L122.913 85.2067C123.671 84.8002 126.268 83.4766 128.684 82.2647C131.101 81.053 133.289 79.8873 133.547 79.6744C134.96 78.5092 136.208 74.2743 135.398 73.3918C135.185 73.1601 134.824 72.5344 134.597 72.0018C134.37 71.469 133.935 70.7727 133.63 70.4542C132.261 69.0199 129.258 67.7344 126.676 67.4771C125.64 67.3741 124.454 67.2334 124.04 67.1647C123.626 67.0959 122.638 67.196 121.846 67.387ZM71.8224 69.3618C71.5463 69.4172 70.699 69.6128 69.9396 69.7962C69.1802 69.9797 68.2503 70.1966 67.873 70.278C66.7583 70.5188 66.4641 71.4076 66.6119 74.0884C66.7596 76.7659 66.378 80.3761 65.66 83.0976C65.0223 85.5151 63.8931 88.0633 63.6524 87.6284C63.554 87.4508 63.2339 86.2858 62.9409 85.0394C62.2847 82.2487 62.249 79.1008 62.8334 75.5525C63.4372 71.8852 63.4201 70.867 62.7488 70.5404C62.4529 70.3966 62.0339 70.1366 61.8177 69.9631C61.4022 69.6293 60.7894 69.6937 58.4861 70.3123C57.3032 70.6301 57.1591 70.7506 56.6904 71.814C55.4138 74.7102 54.7382 78.2174 54.4784 83.2963C54.2439 87.881 54.8924 90.74 57.0689 94.7156C58.7188 97.7291 59.2751 98.4459 60.8474 99.5839C62.6145 100.863 63.3893 101.128 64.7753 100.927C67.1936 100.575 69.3052 98.345 71.489 93.8344C74.2008 88.2338 75.515 82.133 75.5464 74.9983C75.565 70.7836 75.4289 70.1762 74.4667 70.1762C74.2287 70.1762 73.8295 69.9576 73.5797 69.6903C73.1346 69.2143 72.8344 69.1582 71.8224 69.3618ZM125.422 70.6629C126.476 71.1831 128.433 73.0068 128.433 73.4681C128.433 73.8207 126.148 75.8859 123.4 78.0172C122.233 78.9222 120.571 80.2121 119.706 80.8837C117.85 82.3247 117.764 82.2596 117.764 79.4089C117.764 77.0502 118.245 76.2413 121.691 72.8134C123.121 71.3908 124.324 70.2156 124.364 70.2015C124.404 70.1876 124.88 70.3951 125.422 70.6629Z" fill="#150E70"></path> <path fill-rule="evenodd" clip-rule="evenodd" d="M40.4206 101.287C39.4425 101.452 38.2563 101.805 37.7849 102.072C36.1094 103.019 34.5421 106.249 34.5421 108.754C34.5421 109.822 34.5008 110.418 34.378 111.031C34.2553 111.644 33.7952 112.325 33.3496 112.231C33.1081 112.18 29.1823 111.916 24.6258 111.646C10.4161 110.801 2.60176 110.955 0.920504 112.114C-0.677656 113.215 -0.29983 114.289 2.88469 117.698C3.31297 118.156 3.66343 118.611 3.66343 118.709C3.66343 118.807 4.48335 119.28 5.48578 119.759C7.19088 120.574 7.46126 120.63 9.6908 120.629C13.8592 120.626 32.8413 119.317 33.379 118.996C33.5209 118.911 33.5573 119.205 33.4699 119.728C33.3893 120.208 33.4317 120.636 33.5643 120.679C33.8088 120.758 33.4285 144.754 33.1721 145.438C33.1021 145.624 32.8724 147.468 32.6618 149.535C32.3093 152.994 32.3118 153.391 32.6947 154.516C33.3218 156.36 34.9962 158.922 36.1952 159.873C37.9453 161.261 38.6851 160.98 39.9009 158.466C41.2706 155.633 41.2807 155.595 42.0996 150.084C42.8711 144.89 42.8814 144.698 42.7352 138.124C42.6537 134.449 42.4571 128.053 42.2987 123.91C41.9982 116.047 41.8681 108.091 42.0318 107.571C42.0843 107.404 42.5083 107.267 42.9742 107.267C44.0422 107.267 44.114 107.511 44.1672 111.319C44.2132 114.599 44.6869 115.939 45.9547 116.374C46.5865 116.591 46.7276 116.525 47.4983 115.645C47.9648 115.113 48.799 113.799 49.3523 112.725C50.2581 110.966 50.358 110.59 50.358 108.943C50.358 106.642 49.9503 104.447 49.3455 103.494C49.0531 103.032 48.2409 102.447 47.1707 101.926C45.1935 100.964 43.3646 100.79 40.4206 101.287Z" fill="#150E70"></path> <path d="M10.0346 133.293C11.3053 132.463 13.5064 130.985 14.9258 130.008C16.3455 129.031 17.6825 128.232 17.8974 128.232C18.5024 128.232 24.7515 133.895 25.6484 135.256L26.187 136.073L24.7529 137.331C23.9642 138.023 21.3943 140.038 19.0424 141.809C16.0359 144.073 14.5781 145.001 14.1331 144.934C13.1656 144.789 12.2522 144.106 11.3922 142.886C10.9634 142.277 10.2012 141.581 9.69904 141.339C8.56787 140.794 7.19673 138.836 6.78203 137.172C6.41123 135.685 6.45713 135.63 10.0346 133.293Z" fill="#150E70"></path> <path d="M37.6905 74.7733C38.7435 74.091 40.5676 72.8759 41.7438 72.0733C42.9203 71.2704 44.0283 70.6136 44.2064 70.6136C44.7077 70.6136 49.8863 75.2677 50.6296 76.3866L51.076 77.0583L49.8875 78.0922C49.2339 78.6607 47.1043 80.317 45.1553 81.7728C42.6637 83.6335 41.4557 84.3964 41.0869 84.3412C40.2852 84.2218 39.5282 83.6606 38.8155 82.6581C38.4601 82.1578 37.8286 81.5857 37.4124 81.3867C36.475 80.9386 35.3387 79.3288 34.9951 77.9617C34.6878 76.7394 34.7258 76.6944 37.6905 74.7733Z" fill="#150E70"></path> <path d="M75.3618 1.17085C75.3618 0.929585 75.5516 0.548375 75.7835 0.323875C76.3107 -0.18635 78.355 -0.0760504 79.611 0.530389C80.0779 0.755861 80.5762 0.940274 80.7186 0.940274C81.6342 0.940274 84.3994 2.67188 84.3994 3.24528C84.3994 3.66804 92.7181 11.3231 96.4203 14.3072C98.5941 16.0595 111.33 24.4984 114.598 26.3519C115.427 26.8226 116.908 27.7915 117.888 28.5053C120.434 30.358 125.972 33.5908 133.646 37.704C134.567 38.1972 136.26 39.2755 137.409 40.0999C138.558 40.9242 140.375 42.0181 141.446 42.5302C144.038 43.7686 144.058 44.4732 141.538 45.751C139.367 46.8516 137.367 46.5098 131.762 44.0801C129.807 43.2322 127.726 42.4134 127.138 42.2601C125.786 41.9078 120.593 39.6579 118.075 38.3335C117.02 37.7786 115.309 36.8835 114.274 36.3443C113.238 35.8052 111.6 34.8506 110.634 34.223C109.667 33.5952 108.199 32.7188 107.37 32.2752C105.514 31.2812 98.4141 26.8046 96.1986 25.2312C95.3011 24.5939 93.8629 23.6745 93.0028 23.1881C90.3073 21.6639 87.6937 19.4918 82.856 14.756C78.767 10.7529 77.4715 9.592 77.9769 10.3833C78.1777 10.6977 76.6647 13.2984 75.5551 14.5463C72.0286 18.512 63.5493 24.8247 54.7393 30.0433C45.251 35.6638 28.5836 42.5694 20.275 44.3221C17.6094 44.8846 11.5318 44.7198 10.4864 44.057C9.73578 43.5808 9.08558 42.5242 9.08558 41.78C9.08558 40.751 11.3264 39.4604 15.8638 37.8758C19.4623 36.6189 22.4586 35.4077 24.9143 34.217C25.9569 33.7116 28.0468 32.7888 29.5586 32.1668C34.0333 30.3256 43.0157 25.5691 47.8687 22.4711C58.2705 15.8301 67.5924 8.84221 69.8064 6.02577C70.6674 4.93048 70.9833 4.79661 74.1678 4.17802C74.8049 4.05411 74.8454 3.97709 74.7085 3.14858C74.6003 2.49379 74.6684 2.16676 74.9611 1.93133C75.1815 1.75445 75.3618 1.41211 75.3618 1.17085Z" fill="#150E70"></path> <path d="M111.477 130.649C114.788 127.453 118.486 125.86 124.713 124.95C126.678 124.663 129.709 124.799 131.551 125.258C132.205 125.421 133.877 126.087 135.267 126.739C137.304 127.693 138.293 128.404 140.371 130.41C142.653 132.611 143.137 133.272 144.588 136.163C149.026 145.007 149.545 157.271 145.917 167.554C142.899 176.107 137.771 183.127 132.833 185.463C130.779 186.434 128.962 186.807 125.264 187.016C122.924 187.149 122.806 187.125 121.774 186.303C120.734 185.476 118.618 181.858 118.618 180.908C118.618 179.784 119.459 179.26 122.1 178.739C124.258 178.313 125.049 177.996 126.645 176.913C134.555 171.549 139.498 161.465 139.533 150.622C139.559 142.227 137.025 137.039 131.699 134.582C129.952 133.776 129.493 133.691 126.907 133.691C124.11 133.691 123.989 133.719 121.407 134.978C119.372 135.969 118.216 136.792 116.363 138.565C113.658 141.153 109.7 146.122 109.698 146.933C109.696 147.226 109.496 147.836 109.252 148.288C109.007 148.74 108.807 149.264 108.807 149.454C108.807 150.269 107.259 152.814 106.582 153.112C105.939 153.395 105.696 153.309 104.527 152.383C103.032 151.201 101.825 149.235 100.274 145.457C99.6906 144.036 98.9358 142.487 98.5963 142.013C97.2073 140.076 94.6128 137.754 92.9022 136.918C89.6209 135.314 85.8539 135.614 84.7893 137.565C83.8605 139.267 85.0259 145.207 87.4444 151.101C88.7555 154.296 88.9431 154.998 88.8185 156.249C88.7391 157.045 88.454 157.909 88.1844 158.169C87.7292 158.608 87.6184 158.603 86.6263 158.087C85.1386 157.314 83.4565 155.385 81.5598 152.279C79.4422 148.811 78.5993 146.928 77.6753 143.604C75.97 137.469 76.9907 131.547 80.2413 128.716C82.1181 127.083 86.8347 125.94 90.8621 126.144C93.1305 126.259 93.6187 126.4 96.4195 127.743C99.9246 129.425 102.791 131.776 105.288 135.018L106.819 137.005L108.007 134.929C108.744 133.64 110.06 132.017 111.477 130.649Z" fill="#150E70"></path> <path d="M54.4803 133.293C55.751 132.463 57.9521 130.985 59.3715 130.008C60.7912 129.031 62.1283 128.232 62.3431 128.232C62.9481 128.232 69.1972 133.895 70.0941 135.256L70.6327 136.073L69.1986 137.331C68.4099 138.023 65.84 140.038 63.4881 141.809C60.4816 144.073 59.0238 145.001 58.5788 144.934C57.6113 144.789 56.6979 144.106 55.8379 142.886C55.4091 142.277 54.6469 141.581 54.1447 141.339C53.0136 140.794 51.6424 138.836 51.2277 137.172C50.8569 135.685 50.9028 135.63 54.4803 133.293Z" fill="#150E70"></path> <path fill-rule="evenodd" clip-rule="evenodd" d="M137.402 107.625C123.214 108.051 108.174 108.73 81.4184 110.155C62.0372 111.187 53.8641 111.992 52.6109 112.995C51.7719 113.666 52.7655 116.344 54.2083 117.301C54.679 117.613 55.5429 117.976 56.1283 118.107C57.5236 118.419 81.9622 118.521 95.9791 118.272C111.051 118.004 132.268 117.553 136.649 117.406C138.651 117.339 141.193 117.253 142.297 117.215C145.149 117.118 145.786 116.823 146.557 115.245C146.907 114.53 147.193 113.799 147.193 113.62C147.193 113.441 147.371 113.048 147.589 112.746C147.819 112.429 148.045 111.441 148.127 110.394L148.267 108.591L147.542 108.303C147.143 108.145 146.46 107.867 146.025 107.685C145.59 107.504 144.912 107.372 144.519 107.394C144.125 107.415 140.923 107.519 137.402 107.625Z" fill="#150E70"></path> </svg> 