<?xml version="1.0" encoding="UTF-8"?> <svg xmlns="http://www.w3.org/2000/svg" id="Layer_1" data-name="Layer 1" viewBox="0 0 51 51"><defs><style> .cls-1 { fill: none; stroke: #262f68; stroke-linecap: round; stroke-linejoin: round; } </style></defs><circle class="cls-1" cx="25.5" cy="25.5" r="25"></circle><g><g><line class="cls-1" x1="1.2" y1="31.39" x2="16.83" y2="31.39"></line><line class="cls-1" x1="34.17" y1="31.39" x2="49.8" y2="31.39"></line></g><g><g><line class="cls-1" x1="20.74" y1="38.81" x2="30.26" y2="38.81"></line><line class="cls-1" x1="18.59" y1="41.28" x2="32.41" y2="41.28"></line><g><line class="cls-1" x1="10.95" y1="36.57" x2="40.05" y2="36.57"></line><g><line class="cls-1" x1="13.21" y1="26.2" x2="13.21" y2="41.99"></line><line class="cls-1" x1="37.79" y1="26.2" x2="37.79" y2="41.99"></line></g><g><polygon class="cls-1" points="25.5 18.92 10.95 26.2 40.05 26.2 25.5 18.92"></polygon><g><line class="cls-1" x1="16.88" y1="26.2" x2="16.88" y2="36.57"></line><line class="cls-1" x1="34.12" y1="26.2" x2="34.12" y2="36.57"></line></g></g><polyline class="cls-1" points="27.32 36.57 27.32 29.36 23.68 29.36 23.68 36.57"></polyline></g></g><g><polyline class="cls-1" points="49.6 18.59 25.5 7.01 1.48 18.55"></polyline><polyline class="cls-1" points="34.75 11.45 30.26 11.45 34.12 15.19 27.32 12.28 25.5 15.95 23.68 12.28 16.88 15.19 20.74 11.45 16.25 11.45"></polyline></g></g></g></svg> 